<svg xmlns="http://www.w3.org/2000/svg" xmlns:xlink="http://www.w3.org/1999/xlink" viewBox="0 0 1200 1200"><defs><style>.cls-1{isolation:isolate;}.cls-2{fill:#ededf4;}.cls-3{fill:#1a4b98;}.cls-4{fill:#f485b7;}.cls-5{fill:#e57ab0;}.cls-6{fill:#56b0aa;}.cls-7{fill:#0d096c;}.cls-8{fill:#18161f;}.cls-9{fill:#262432;}.cls-10{fill:#b77234;stroke:#82410b;stroke-width:2.8px;}.cls-10,.cls-53,.cls-58{stroke-miterlimit:10;}.cls-11{fill:#82410b;}.cls-12{fill:#010d00;}.cls-13{fill:#6a747f;}.cls-14{fill:#b1acc9;}.cls-15{fill:#231f20;}.cls-16{fill:#e3e4e5;}.cls-17{fill:#9299a3;}.cls-18{fill:#c3c7c9;}.cls-19{fill:#021f26;}.cls-20{fill:#f1f5f9;}.cls-21{fill:#b5bec6;}.cls-22{fill:#2c5f72;}.cls-22,.cls-24{opacity:0.8;}.cls-23{fill:#080508;}.cls-24{fill:#d2dbe6;}.cls-25,.cls-55{fill:#fff;}.cls-26{fill:#59b5d3;}.cls-27{fill:#8294a7;}.cls-28{fill:#85b2d6;}.cls-29{fill:#e1f5fb;}.cls-30{fill:#979e9f;}.cls-31{fill:#61b1e9;}.cls-32{fill:#ebe9f0;}.cls-33{fill:#eff4a0;}.cls-34{fill:#a5a50e;}.cls-35{fill:#dbdd8a;}.cls-36{fill:#cece78;}.cls-37{opacity:0.5;}.cls-37,.cls-65{mix-blend-mode:soft-light;}.cls-38{fill:url(#linear-gradient);}.cls-39{fill:url(#linear-gradient-2);}.cls-40{fill:url(#linear-gradient-3);}.cls-41{fill:url(#linear-gradient-4);}.cls-42{fill:url(#linear-gradient-5);}.cls-43{fill:#4b4c4b;}.cls-44,.cls-58{fill:none;}.cls-45,.cls-53{fill:#f1f29d;}.cls-46{fill:#504587;}.cls-47{opacity:0.22;}.cls-48{fill:#e3e7ea;}.cls-49{fill:#c6cecf;}.cls-50{fill:#95b0dd;}.cls-51{fill:#e17ba9;}.cls-52{fill:#0b0759;}.cls-53{stroke:#adaa53;stroke-width:0.33px;}.cls-54{fill:#adaa53;}.cls-55{opacity:0.4;}.cls-56{fill:#a5a5a5;}.cls-57{fill:#f2e9e9;}.cls-58{stroke:#878383;stroke-width:1.53px;}.cls-59,.cls-62{fill:#f184b4;}.cls-59{fill-rule:evenodd;}.cls-60{fill:#ecec9d;}.cls-61{fill:#fdd24c;}.cls-63{fill:#ffecb0;}.cls-64{fill:#8a7641;}.cls-66{fill:url(#linear-gradient-6);}.cls-67{fill:url(#linear-gradient-7);}.cls-68{fill:url(#linear-gradient-8);}.cls-69{fill:url(#linear-gradient-9);}.cls-70{fill:url(#linear-gradient-10);}.cls-71{fill:url(#linear-gradient-11);}.cls-72{fill:url(#linear-gradient-12);}.cls-73{fill:url(#linear-gradient-13);}.cls-74{fill:url(#linear-gradient-14);}.cls-75{fill:url(#linear-gradient-15);}.cls-76{fill:url(#linear-gradient-16);}.cls-77{fill:url(#linear-gradient-17);}</style><linearGradient id="linear-gradient" x1="640.34" y1="563.39" x2="620.56" y2="595.52" gradientUnits="userSpaceOnUse"><stop offset="0" stop-color="#c57db2"/><stop offset="1" stop-color="#56bc80"/></linearGradient><linearGradient id="linear-gradient-2" x1="638.28" y1="562.13" x2="618.51" y2="594.26" xlink:href="#linear-gradient"/><linearGradient id="linear-gradient-3" x1="638.53" y1="562.28" x2="618.75" y2="594.41" xlink:href="#linear-gradient"/><linearGradient id="linear-gradient-4" x1="645.96" y1="566.86" x2="626.19" y2="598.99" xlink:href="#linear-gradient"/><linearGradient id="linear-gradient-5" x1="645.72" y1="566.7" x2="625.94" y2="598.84" xlink:href="#linear-gradient"/><linearGradient id="linear-gradient-6" x1="390.7" y1="671.76" x2="718.37" y2="671.76" gradientUnits="userSpaceOnUse"><stop offset="0" stop-color="#d979d2"/><stop offset="1" stop-color="#50bf80"/></linearGradient><linearGradient id="linear-gradient-7" x1="233.44" y1="561.25" x2="432.98" y2="561.25" xlink:href="#linear-gradient-6"/><linearGradient id="linear-gradient-8" x1="159.54" y1="340.05" x2="256.63" y2="340.05" xlink:href="#linear-gradient-6"/><linearGradient id="linear-gradient-9" x1="774.85" y1="632.92" x2="948.45" y2="632.92" xlink:href="#linear-gradient-6"/><linearGradient id="linear-gradient-10" x1="943.37" y1="375.76" x2="1040.46" y2="375.76" xlink:href="#linear-gradient-6"/><linearGradient id="linear-gradient-11" x1="408.07" y1="282.48" x2="429.03" y2="282.48" gradientTransform="translate(50.65 -63.4) rotate(9.22)" xlink:href="#linear-gradient-6"/><linearGradient id="linear-gradient-12" x1="675.43" y1="926.91" x2="691.9" y2="926.91" xlink:href="#linear-gradient-6"/><linearGradient id="linear-gradient-13" x1="572.56" y1="166.23" x2="585.92" y2="166.23" xlink:href="#linear-gradient-6"/><linearGradient id="linear-gradient-14" x1="781.49" y1="730.16" x2="796.55" y2="730.16" gradientTransform="translate(747.4 -344.06) rotate(45)" xlink:href="#linear-gradient-6"/><linearGradient id="linear-gradient-15" x1="354.18" y1="888.04" x2="367.53" y2="888.04" xlink:href="#linear-gradient-6"/><linearGradient id="linear-gradient-16" x1="834.23" y1="317.23" x2="843.31" y2="317.23" xlink:href="#linear-gradient-6"/><linearGradient id="linear-gradient-17" x1="727.64" y1="153.22" x2="805.78" y2="153.22" xlink:href="#linear-gradient-6"/></defs><g class="cls-1"><g id="Layer_1" data-name="Layer 1"><path class="cls-2" d="M85.46,789.18c-24.89-62.93-9.86-144.94,47.4-181,24-15.12,54.55-22.43,70.81-45.68,36.11-57.41-33.51-161.19-24.74-235.93-3.82-126.84,41-183.34,196-194.46S630,214,665.16,234.51c77.12,45,177.46-2.93,263.64,20.49,76.62,20.81,130.49,104.36,117.83,182.74-10.32,63.89-58.44,122.85-45.71,186.31,33.76,115.8,218.12,175.18,65.59,312.09C986.74,992.5,883,973,791.17,978.31c-65.94,4-130.26,21.06-194.81,35.08-131.17,35-276.68,30.19-370.75-78.33C173.4,886.78,113.52,860.11,85.46,789.18Z"/><path class="cls-3" d="M629,263.27h16.19a23.32,23.32,0,0,1,23.32,23.32v25.1A26.33,26.33,0,0,1,642.12,338H632a26.33,26.33,0,0,1-26.33-26.33v-25.1A23.32,23.32,0,0,1,629,263.27Z"/><rect class="cls-4" x="609.53" y="273.74" width="39.54" height="44.37" rx="17.61"/><path class="cls-4" d="M647.06,343.66c-8.33.09-16.65.38-25,.68.37-4.81-4.28-9.61-3.94-14.42,0-.46,5.07-.93,5.1-1.39.55-7.73,1.08-15.46,1.67-23.19q9.8.12,19.6.2.68,12,1.51,24c0,.39,5.69.79,5.72,1.18C652.05,335,646.73,339.34,647.06,343.66Z"/><path class="cls-4" d="M643.21,297.85a7.61,7.61,0,0,0,8.45,7.88,9.23,9.23,0,0,0,8.66-9.07,7.62,7.62,0,0,0-8.46-7.88A9.2,9.2,0,0,0,643.21,297.85Z"/><rect class="cls-3" x="647.31" y="259.45" width="22.42" height="16.49" rx="8.25" transform="translate(-29.03 448.2) rotate(-36.83)"/><rect class="cls-3" x="603.74" y="271.2" width="22.42" height="16.49" rx="8.25" transform="translate(-48.9 404.19) rotate(-35.08)"/><rect class="cls-3" x="622.22" y="271.2" width="22.42" height="16.49" rx="8.25" transform="translate(258.99 -302.89) rotate(33.45)"/><path class="cls-3" d="M640.47,308.1l.27-25.67a5.11,5.11,0,0,1,5.25-5h0a5.11,5.11,0,0,1,5,5.25l-.27,25.68a5.09,5.09,0,0,1-5.24,5h0A5.11,5.11,0,0,1,640.47,308.1Z"/><path class="cls-5" d="M589.36,388.76,603.7,366a13,13,0,1,0-20.18-16.37L573,382C569.68,388.68,584.86,396.41,589.36,388.76Z"/><path class="cls-6" d="M616.15,347l-11.86,19.75-21-13.87a3.18,3.18,0,0,1-.51-4.41l11-19.54A14.38,14.38,0,1,1,616.15,347"/><path class="cls-6" d="M671.81,415.69l-73.6-.95,7.22-36.11-1.9-44.89a8.5,8.5,0,0,1,8.6-8.86l10,.13,13,12.4,13.1-12.06,9.87.13a8.49,8.49,0,0,1,8.38,8.89l-2.1,45,7.45,36.3Z"/><path class="cls-4" d="M622.8,624.34l.12,30.46-6.6.13-6.59.13-1.09-28.12c4.74-.69,9.48-1.48,14.16-2.6"/><path class="cls-4" d="M577.62,663.4l44.75-.87.55-7.73-13.19.25s-31.74,3.24-32.11,8.35"/><path class="cls-7" d="M623.21,650.71l-.85,11.82-45.38.88C577.72,653,609.79,651,609.79,651l13.42-.26Z"/><path class="cls-8" d="M603.14,635.6l10.2-2.1,10.21-2.09,4.9-108.74s10.39-66,12.42-113.88l-42.24-.05-4.46,109.75,9,117.11Z"/><path class="cls-4" d="M672.61,622.12l3.79,31-6.49.32-6.5.32-4.47-28.59c4.6-.84,9.19-1.78,13.67-3"/><path class="cls-4" d="M632.74,663.18l44-2.18-.39-7.88-13,.64s-30.92,4.22-30.67,9.42"/><path class="cls-7" d="M676.19,648.94l.59,12.06-44.67,2.21c-.53-10.64,30.87-13.62,30.87-13.62l13.21-.65Z"/><path class="cls-9" d="M657.11,637.18l10-2.11,10-2.12-5.6-109.59s2.13-66.35-.46-114.57H627.43l9.4,110.35,20.28,118Z"/><path class="cls-4" d="M665.07,421.37l6.43,1,6.42,1L718.37,382l-31-34.51a12.88,12.88,0,1,0-19.2,17L692.15,383l-27.08,38.39Z"/><path class="cls-4" d="M664.29,440.36a6.88,6.88,0,0,0,8.74-3.59l4.11-9.14a6.87,6.87,0,0,0-3.79-9.23l-1-.39a6.87,6.87,0,0,0-9,4.28l-3.09,9.54a6.87,6.87,0,0,0,4.06,8.53"/><path class="cls-6" d="M653.21,351.25l17.27,15L688,348.54a2.6,2.6,0,0,0-.12-3.66l-15.27-15.39a10.85,10.85,0,0,0-16,.61l-4.86,5.72a10.84,10.84,0,0,0,1.41,15.43"/><path class="cls-4" d="M588.56,389.5,609,329.75l-11.18-6.3L596.56,326l-23.28,55.15C569.7,388.66,583.2,394.41,588.56,389.5Z"/><path class="cls-4" d="M613.66,311.68a6.89,6.89,0,0,1,2.34,9.16l-4.87,8.76a6.86,6.86,0,0,1-9.66,2.48l-.93-.59a6.87,6.87,0,0,1-1.94-9.78l5.8-8.18a6.87,6.87,0,0,1,9.26-1.85"/><path class="cls-10" d="M612.45,833.08c0,3.36-9.43,3.36-9.43,0V675.84h9.43Z"/><path class="cls-10" d="M542.84,813.35c0,4.1-10.27,4.1-10.27,0V658h10.27Z"/><path class="cls-10" d="M681.63,813.35c0,3.53-10.28,3.53-10.28,0V658h10.28Z"/><path class="cls-11" d="M684.25,653.86v6.43c0,11.1-34.46,20.12-77,20.12s-76.95-9-76.95-20.12v-6.78c13.09,7.76,42.76,13.17,77.25,13.17C641.58,666.68,670.88,661.43,684.25,653.86Z"/><ellipse class="cls-10" cx="607.6" cy="644.62" rx="84.39" ry="22.06"/><path class="cls-12" d="M655.66,547.93l-95.45.14a3.39,3.39,0,0,0-3.43,3.23l-.12,63.78,102.71-.14-.27-63.79A3.4,3.4,0,0,0,655.66,547.93Z"/><polygon class="cls-13" points="659.39 614.94 556.67 615.08 556.72 613.24 659.34 613.1 659.39 614.94"/><path class="cls-12" d="M568.36,614.77l79.34-.12a.48.48,0,0,0,.48-.51l0-1a.51.51,0,0,0-.5-.51l-79.26.11a.52.52,0,0,0-.51.51v1A.49.49,0,0,0,568.36,614.77Z"/><polygon class="cls-14" points="655.96 551.85 655.98 611.63 560.08 611.76 559.92 551.98 655.96 551.85"/><path class="cls-15" d="M656.79,612.43l-97.52.15-.16-61.4,97.66-.14Zm-96.71-.67,95.9-.13,0-59.78-96,.13Z"/><path class="cls-16" d="M665.58,655.34l-115,.17c-1.89,0-3.67-2.64-3.29-4.53h0l121.52-.17h0C668.92,652.79,667.47,655.34,665.58,655.34Z"/><path class="cls-17" d="M669.21,650.33l-9.72-35.87-102.55.14h-.37L547,650.51h0l0,.09-.07.26,0,0v.14a4.79,4.79,0,0,0,1.13,3.48,3.61,3.61,0,0,0,2.66,1.46l115-.17h.13a3.16,3.16,0,0,0,2.08-1,5.84,5.84,0,0,0,1.55-4v-.46Zm-111.9-34.77,101.45-.15,9.46,34.92.15.54a.23.23,0,0,1-.08.14,1.25,1.25,0,0,1-.58.28,13.22,13.22,0,0,1-2.82.22l-113.61.16a13.79,13.79,0,0,1-2.82-.21,1.41,1.41,0,0,1-.59-.27.23.23,0,0,1-.07-.15l.14-.54Zm109.8,38.55a2.13,2.13,0,0,1-1.53.75l-115,.17a2.67,2.67,0,0,1-1.92-1.11,4.56,4.56,0,0,1-.85-1.65,10.59,10.59,0,0,0,3.42.36l113.61-.16c.51,0,1,0,1.4,0a7.19,7.19,0,0,0,1.91-.29A4.81,4.81,0,0,1,667.11,654.11Z"/><path class="cls-18" d="M668.37,650.87a.23.23,0,0,1-.08.14,1.25,1.25,0,0,1-.58.28,13.22,13.22,0,0,1-2.82.22l-113.61.16a13.79,13.79,0,0,1-2.82-.21,1.41,1.41,0,0,1-.59-.27.23.23,0,0,1-.07-.15l.14-.54,9.37-34.94,101.45-.15,9.46,34.92Z"/><path class="cls-19" d="M565.11,635.28l85.89-.13a.73.73,0,0,0,.71-.84l-2.49-14.1a.64.64,0,0,0-.64-.54l-81.09.11a.64.64,0,0,0-.63.55l-2.45,14.11A.73.73,0,0,0,565.11,635.28Z"/><line class="cls-20" x1="566.53" y1="621.94" x2="649.9" y2="621.82"/><line class="cls-20" x1="565.89" y1="624.39" x2="650.05" y2="624.27"/><line class="cls-20" x1="565.67" y1="626.67" x2="650.48" y2="626.55"/><line class="cls-20" x1="564.88" y1="629.46" x2="650.89" y2="629.33"/><line class="cls-20" x1="564.46" y1="632.07" x2="651.29" y2="631.95"/><line class="cls-20" x1="590.46" y1="632.04" x2="590.12" y2="635.24"/><line class="cls-20" x1="619.36" y1="631.99" x2="619.56" y2="635.2"/><polygon class="cls-19" points="632.83 635.18 632.56 633.58 638.24 633.57 638.5 635.17 632.83 635.18"/><polygon class="cls-19" points="638.55 633.57 638.29 631.97 643.98 631.96 644.23 633.56 638.55 633.57"/><polygon class="cls-19" points="644.58 635.16 644.34 633.56 650.02 633.55 650.25 635.15 644.58 635.16"/><polygon class="cls-19" points="638.8 635.17 638.55 633.57 644.23 633.56 644.47 635.16 638.8 635.17"/><line class="cls-20" x1="573.13" y1="621.93" x2="573.24" y2="624.38"/><line class="cls-20" x1="579.25" y1="621.92" x2="579.35" y2="624.37"/><line class="cls-20" x1="584.97" y1="621.91" x2="585.05" y2="624.36"/><line class="cls-20" x1="590.53" y1="621.9" x2="590.59" y2="624.35"/><line class="cls-20" x1="596.09" y1="621.9" x2="596.14" y2="624.34"/><line class="cls-20" x1="601.65" y1="621.89" x2="601.68" y2="624.34"/><line class="cls-20" x1="607.21" y1="621.88" x2="607.22" y2="624.33"/><line class="cls-20" x1="612.77" y1="621.87" x2="612.76" y2="624.32"/><line class="cls-20" x1="618.33" y1="621.86" x2="618.3" y2="624.31"/><line class="cls-20" x1="623.89" y1="621.86" x2="623.85" y2="624.3"/><line class="cls-20" x1="629.46" y1="621.85" x2="629.39" y2="624.3"/><line class="cls-20" x1="635.02" y1="621.84" x2="634.93" y2="624.29"/><line class="cls-20" x1="640.58" y1="621.83" x2="640.47" y2="624.28"/><line class="cls-20" x1="576.54" y1="624.48" x2="576.65" y2="626.91"/><line class="cls-20" x1="582.65" y1="624.47" x2="582.73" y2="626.91"/><line class="cls-20" x1="588.35" y1="624.47" x2="588.42" y2="626.9"/><line class="cls-20" x1="593.89" y1="624.46" x2="593.94" y2="626.89"/><line class="cls-20" x1="599.43" y1="624.45" x2="599.46" y2="626.88"/><line class="cls-20" x1="604.97" y1="624.44" x2="604.98" y2="626.87"/><line class="cls-20" x1="610.51" y1="624.43" x2="610.51" y2="626.87"/><line class="cls-20" x1="616.05" y1="624.43" x2="616.03" y2="626.86"/><line class="cls-20" x1="621.6" y1="624.42" x2="621.55" y2="626.85"/><line class="cls-20" x1="627.14" y1="624.41" x2="627.08" y2="626.84"/><line class="cls-20" x1="632.68" y1="624.4" x2="632.6" y2="626.83"/><line class="cls-20" x1="638.22" y1="624.4" x2="638.12" y2="626.83"/><line class="cls-20" x1="576.77" y1="629.55" x2="576.87" y2="631.95"/><line class="cls-20" x1="582.83" y1="629.54" x2="582.91" y2="631.94"/><line class="cls-20" x1="588.49" y1="629.53" x2="588.56" y2="631.93"/><line class="cls-20" x1="593.99" y1="629.52" x2="594.04" y2="631.92"/><line class="cls-20" x1="599.5" y1="629.52" x2="599.53" y2="631.91"/><line class="cls-20" x1="605" y1="629.51" x2="605.01" y2="631.91"/><line class="cls-20" x1="610.5" y1="629.5" x2="610.5" y2="631.9"/><line class="cls-20" x1="616.01" y1="629.49" x2="615.98" y2="631.89"/><line class="cls-20" x1="621.51" y1="629.48" x2="621.47" y2="631.88"/><line class="cls-20" x1="627.01" y1="629.48" x2="626.95" y2="631.87"/><line class="cls-20" x1="632.52" y1="629.47" x2="632.44" y2="631.87"/><line class="cls-20" x1="638.02" y1="629.46" x2="637.93" y2="631.86"/><line class="cls-20" x1="643.76" y1="624.39" x2="643.65" y2="626.82"/><line class="cls-20" x1="574.17" y1="627.03" x2="574.29" y2="629.44"/><line class="cls-20" x1="580.26" y1="627.02" x2="580.35" y2="629.43"/><line class="cls-20" x1="585.94" y1="627.01" x2="586.01" y2="629.43"/><line class="cls-20" x1="591.46" y1="627" x2="591.52" y2="629.42"/><line class="cls-20" x1="596.98" y1="627" x2="597.02" y2="629.41"/><line class="cls-20" x1="602.5" y1="626.99" x2="602.53" y2="629.4"/><line class="cls-20" x1="608.03" y1="626.98" x2="608.03" y2="629.39"/><line class="cls-20" x1="613.55" y1="626.97" x2="613.53" y2="629.39"/><line class="cls-20" x1="619.07" y1="626.96" x2="619.04" y2="629.38"/><line class="cls-20" x1="624.59" y1="626.96" x2="624.54" y2="629.37"/><line class="cls-20" x1="630.12" y1="626.95" x2="630.05" y2="629.36"/><line class="cls-20" x1="635.64" y1="626.94" x2="635.55" y2="629.35"/><line class="cls-20" x1="641.16" y1="626.93" x2="641.06" y2="629.35"/><line class="cls-20" x1="571.75" y1="632.06" x2="571.23" y2="635.27"/><line class="cls-20" x1="577.79" y1="632.05" x2="577.48" y2="635.26"/><line class="cls-20" x1="583.96" y1="631.94" x2="583.73" y2="635.25"/><line class="cls-20" x1="627.57" y1="631.98" x2="628.03" y2="635.18"/><path class="cls-21" d="M652.65,634.15,650.16,620a1.61,1.61,0,0,0-1.58-1.33l-81.09.12h-.08a1.6,1.6,0,0,0-1.49,1.33l-2.45,14.11a1.64,1.64,0,0,0,.37,1.36,1.68,1.68,0,0,0,1.28.6l85.89-.12h.08a1.7,1.7,0,0,0,1.22-.64A1.66,1.66,0,0,0,652.65,634.15Zm-9.08-1.71.1.65H639l-.1-.65h4.72Zm1.42,2.24-.1-.64h4.72l.09.65Zm-66.2-12.28.06,1.49H573.7l-.07-1.49Zm65,11.64.1.64h-4.71l-.1-.64Zm-10.89-2.54.05-1.66h4.55l-.07,1.66Zm-16.46,0v-1.66H621l0,1.66Zm-27.45,0,0-1.66h4.54l0,1.66Zm-5.64,0-.06-1.66H588l.05,1.66Zm-6,0-.07-1.66h5.1l.06,1.66Zm2.45-4.45.07,1.83h-5.11l-.08-1.82Zm2.4-2.29.05,1.33H577.1l-.06-1.33Zm5.7,0,0,1.33h-4.74l0-1.33Zm5.54,0,0,1.33h-4.58l0-1.33Zm5.54,0v1.33H594.4l0-1.32Zm5.54,0v1.33h-4.57l0-1.33Zm5.53,0v1.33h-4.57v-1.33Zm5.54,0v1.33H611V624.8Zm5.54,0,0,1.33h-4.57v-1.33Zm5.54,0,0,1.33H622l0-1.32Zm5.54,0,0,1.33h-4.58l0-1.33Zm5.54,0-.06,1.33H633.1l0-1.33Zm5.53,0-.06,1.32h-4.57l0-1.33Zm-12.72,4.12.05-1.82h4.57l-.07,1.83Zm-5.51,0,0-1.82h4.56l0,1.82Zm-5.51,0,0-1.83h4.56l0,1.82Zm-5.5,0v-1.83h4.56l0,1.82Zm-5.51,0v-1.83h4.56v1.83Zm-5.51,0,0-1.82h4.57v1.83Zm-5.51,0,0-1.82H602v1.82Zm-5.51,0,0-1.83h4.57l0,1.82Zm-5.5,0-.06-1.83H591l0,1.82Zm-5.67,0-.07-1.83h4.72l.06,1.83Zm13.67.93H599l0,1.65h-4.53Zm5.5,0h4.54v1.66H600Zm5.5,0H610v1.66h-4.53Zm5.5,0h4.54v1.66H611Zm11,0h4.55l0,1.66H622Zm5.46,1.65,0-1.66H632L632,631.5Zm8.61-2.62.06-1.83h4.57l-.08,1.83Zm5.58-1.84h8.79l.32,1.82-9.19,0Zm2.53-1,.06-1.33H650l.23,1.32Zm5.69-2.29H641l.06-1.49h8.56Zm-9.84,0h-4.58l.05-1.49h4.6Zm-5.54,0h-4.59l0-1.49h4.6Zm-5.55,0h-4.59l0-1.5H629Zm-5.54,0h-4.59l0-1.49h4.6Zm-5.55,0h-4.59v-1.49h4.6Zm-5.54,0H607.7v-1.49h4.6Zm-5.55,0h-4.59v-1.49h4.6Zm-5.55,0h-4.58l0-1.5h4.6Zm-5.54,0h-4.59l0-1.49h4.6Zm-5.55,0h-4.59l0-1.49h4.6Zm-5.54,0h-4.75l-.06-1.49h4.76Zm-8.48,1,.06,1.33h-10.3l.23-1.32Zm-2.38,2.29.09,1.83h-8.43l.31-1.83Zm2.6,2.78.08,1.66H564.9l.29-1.66Zm1,2.61-.26,2.68.48,0h-5.77l.45-2.73Zm1,0h5.22l-.19,2.7.48,0H578Zm6.18,0h5.53l-.28,2.68.47,0h-5.91Zm6.49,0,28,0,.17,2.73-28.48,0Zm29,0h7.29l.38,2.73h-8l.48,0Zm8.25,0h9.76l.11.64h-6l.35,2.08H628l.47-.06Zm9.82,2.23h-4.71l-.1-.64h4.71Zm.48-3.2.06-1.66,12.41,0v-.12l.31,1.78Zm-71-11.71h0l81.09-.11a.64.64,0,0,1,.64.54l.2,1.13-82.76.12.2-1.13A.65.65,0,0,1,567.46,619.78Zm-.93,2.45v.19h6.14l.07,1.49h-6.5Zm-2.12,12.21.33-1.89h6.45l-.43,2.65.47.08h-6.12A.73.73,0,0,1,564.41,634.44Zm86.63.71h-.31l-.3-2.07h-5.79l-.1-.64h6.75V632l.42,2.36A.73.73,0,0,1,651,635.15Z"/><path class="cls-20" d="M617.76,653.41l-19.35,0a.53.53,0,0,1-.52-.55v-1.71a.54.54,0,0,1,.53-.55l19.32,0a.54.54,0,0,1,.53.55v1.71A.54.54,0,0,1,617.76,653.41Z"/><path class="cls-17" d="M617.8,653.79h0l-19.35,0a.9.9,0,0,1-.63-.27,1,1,0,0,1-.28-.68v-1.7a.93.93,0,0,1,.91-.94l19.32,0a.93.93,0,0,1,.92.93v1.7a1,1,0,0,1-.28.68A.88.88,0,0,1,617.8,653.79ZM598.42,651a.17.17,0,0,0-.15.17v1.71a.18.18,0,0,0,.05.13.13.13,0,0,0,.09,0l19.35,0a.13.13,0,0,0,.09,0,.18.18,0,0,0,0-.13v-1.7a.17.17,0,0,0-.15-.18l-19.32,0Z"/><polygon class="cls-22" points="655.98 553.09 559.91 553.23 559.9 551.97 655.98 551.83 655.98 553.09"/><path class="cls-23" d="M560.91,552.42s.09,0,.16,0a.22.22,0,0,1,.14.08.17.17,0,0,0-.09.16c0,.1.09.15.1.16s-.1.22-.19.21-.06,0-.13,0-.07,0-.13,0-.22-.2-.21-.37.14-.24.21-.24S560.85,552.41,560.91,552.42Z"/><path class="cls-23" d="M560.9,552.37a.18.18,0,0,1,.16-.18h0a.18.18,0,0,1-.17.18Z"/><polygon class="cls-24" points="621.62 607.49 594.42 607.24 594.39 611.71 621.66 611.67 621.62 607.49"/><polygon class="cls-25" points="600.58 611.08 597.59 611.08 597.61 607.97 600.6 607.99 600.58 611.08"/><polygon class="cls-26" points="599.09 611.08 597.59 611.08 597.61 607.97 599.11 607.98 599.09 611.08"/><path class="cls-27" d="M618.15,611.08h-1.39a.71.71,0,0,1-.68-.73v-1.52a.69.69,0,0,1,.67-.72h1.39a.7.7,0,0,1,.67.73v1.5A.69.69,0,0,1,618.15,611.08Z"/><polygon class="cls-28" points="614.52 608.03 612.56 611.08 610.56 608 614.52 608.03"/><path class="cls-29" d="M603.6,611.08h0a1.49,1.49,0,0,1-1.46-1.54h0a1.5,1.5,0,0,1,1.47-1.53h0a1.51,1.51,0,0,1,1.46,1.54h0A1.51,1.51,0,0,1,603.6,611.08Z"/><path class="cls-30" d="M603.6,610.94h0a1.37,1.37,0,0,1-1.33-1.4h0a1.36,1.36,0,0,1,1.34-1.39h0a1.37,1.37,0,0,1,1.32,1.4h0A1.36,1.36,0,0,1,603.6,610.94Z"/><path class="cls-25" d="M608.26,611h-.64a1.38,1.38,0,0,1-1.34-1.42h0a1.36,1.36,0,0,1,1.33-1.4h.64a1.37,1.37,0,0,1,1.33,1.41h0A1.36,1.36,0,0,1,608.26,611Z"/><path class="cls-31" d="M608.23,610.84h-.59a1.25,1.25,0,0,1-1.21-1.29h0a1.23,1.23,0,0,1,1.21-1.27h.59a1.26,1.26,0,0,1,1.2,1.29h0A1.23,1.23,0,0,1,608.23,610.84Z"/><path class="cls-25" d="M616.45,609.59a1,1,0,0,0,1,1.08,1,1,0,0,0,1-1.07,1.05,1.05,0,0,0-1-1.08A1,1,0,0,0,616.45,609.59Z"/><polygon class="cls-13" points="614.49 614.08 601.57 614.1 601.57 613.09 614.48 613.07 614.49 614.08"/><polygon class="cls-18" points="630.87 648.43 585.29 648.5 586.87 637.67 629.25 637.61 630.87 648.43"/><path class="cls-17" d="M632,649.39h-.56l-47.24.07,1.87-12.75,44-.06Zm-46.69-.89,45.58-.07-1.62-10.82-42.38.06Z"/><rect class="cls-25" x="564.46" y="558.03" width="87.02" height="41.88"/><path class="cls-32" d="M633.64,595.15c-2.19.19-4.6-1-5.18-3.18a4.93,4.93,0,0,0-.9-2.13c-1.45-1.67-5.33-.45-7.57-1.43-4-1.06-5.31-3-4.19-8s5-7.23,5.92-8.15c2.12-2,1.58-5.59,3.12-8.07a5.46,5.46,0,0,1,6.79-2c1.88.92,3.26,3,5.35,3.17,3.92,0,8.79-5.24,11.61.83,1,3-.59,6.09-1.29,9a42.2,42.2,0,0,0-.74,6.44c-.15,4.44-1.67,9-5.93,10.9A17.5,17.5,0,0,1,633.64,595.15Z"/><polygon class="cls-33" points="641.81 568.56 636.52 582.99 633.17 582.23 630.83 581.71 641.81 568.56"/><path class="cls-34" d="M642.13,568.05h0l0,0H642l-20.39,12a.08.08,0,0,0,0,.09.08.08,0,0,0,.07.07l5.42.87,2.73,7h0l0,0h.09l0,0h0l3.23-5.71,3.36.76a.1.1,0,0,0,.1-.06l5.49-15A.1.1,0,0,0,642.13,568.05Zm-20.2,12,19.34-11.38L627.12,580.9Zm7.92,7.66-2.6-6.71,14-12.13-10.7,12.82h0v0h0Zm.19-.07.71-5.79,2.27.51Zm6.48-4.67-3.35-.76-2.34-.52,11-13.15Z"/><path class="cls-35" d="M627.25,581l14-12.13-10.7,12.82,0,0-.73,6Z"/><polygon class="cls-33" points="641.26 568.69 627.12 580.9 621.93 580.07 641.26 568.69"/><polygon class="cls-34" points="629.84 588.16 629.85 588.17 629.85 588.17 629.84 588.16"/><polygon class="cls-34" points="629.92 588.17 629.92 588.18 629.91 588.18 629.92 588.17"/><polygon class="cls-36" points="633.02 582.38 630.03 587.66 630.75 581.87 633.02 582.38"/><polygon class="cls-34" points="630.58 581.74 630.58 581.74 630.58 581.75 630.58 581.74"/><path class="cls-34" d="M624.57,584.2a.09.09,0,0,1-.07,0,.08.08,0,0,1,0-.12,4.72,4.72,0,0,0,.67-.53.09.09,0,0,1,.12.13,4.58,4.58,0,0,1-.7.55Z"/><path class="cls-34" d="M625.54,583.38a.07.07,0,0,1-.06,0,.08.08,0,0,1,0-.12,5.09,5.09,0,0,0,.88-1.34.08.08,0,0,1,.11,0,.09.09,0,0,1,0,.12,5.16,5.16,0,0,1-.91,1.38Z"/><path class="cls-34" d="M632.16,589.05l-.06,0a.1.1,0,0,1,0-.13,8.49,8.49,0,0,0,2.13-3.07.09.09,0,0,1,.12-.05.08.08,0,0,1,0,.11,8.45,8.45,0,0,1-2.17,3.14S632.19,589.05,632.16,589.05Z"/><path class="cls-34" d="M634.56,585.25h0a.11.11,0,0,1-.06-.12,7.33,7.33,0,0,0,.24-1,.09.09,0,0,1,.17,0,6.74,6.74,0,0,1-.24,1.06A.09.09,0,0,1,634.56,585.25Z"/><g class="cls-37"><path class="cls-38" d="M642.13,568.05h0l0,0H642l-20.39,12a.08.08,0,0,0,0,.09.08.08,0,0,0,.07.07l5.42.87,2.73,7h0l0,0h.09l0,0h0l3.23-5.71,3.36.76a.1.1,0,0,0,.1-.06l5.49-15A.1.1,0,0,0,642.13,568.05Zm-11.55,13.7-.73,6,.73-6Z"/><path class="cls-39" d="M625.2,583.51a4.72,4.72,0,0,1-.67.53.08.08,0,0,0,0,.12.09.09,0,0,0,.07,0h0a4.58,4.58,0,0,0,.7-.55.09.09,0,0,0-.12-.13Z"/><path class="cls-40" d="M626.47,581.86a.08.08,0,0,0-.11,0,5.09,5.09,0,0,1-.88,1.34.08.08,0,0,0,0,.12.07.07,0,0,0,.06,0l.07,0a5.16,5.16,0,0,0,.91-1.38A.09.09,0,0,0,626.47,581.86Z"/><path class="cls-41" d="M634.35,585.78a.09.09,0,0,0-.12.05,8.49,8.49,0,0,1-2.13,3.07.1.1,0,0,0,0,.13l.06,0s.05,0,.06,0a8.45,8.45,0,0,0,2.17-3.14A.08.08,0,0,0,634.35,585.78Z"/><path class="cls-42" d="M634.81,584a.08.08,0,0,0-.1.07,7.33,7.33,0,0,1-.24,1,.11.11,0,0,0,.06.12h0a.09.09,0,0,0,.08-.06,6.74,6.74,0,0,0,.24-1.06A.08.08,0,0,0,634.81,584Z"/></g><rect class="cls-43" x="570.4" y="569.74" width="11.95" height="2.07"/><rect class="cls-43" x="570.4" y="575.44" width="33.44" height="1.95"/><rect class="cls-43" x="570.4" y="579.75" width="39.93" height="1.95"/><rect class="cls-43" x="570.4" y="584.05" width="33.44" height="1.95"/><rect class="cls-44" x="570.25" y="415.17" width="246.63" height="246.63"/><polygon class="cls-4" points="436.51 734.1 418.03 714.82 390.7 746.7 431.05 803.4 434.88 796.81 438.71 790.22 418.17 748.98 436.51 734.1"/><path class="cls-4" d="M454.57,808.25h0A8.05,8.05,0,0,1,444,811.38L433.49,806a8,8,0,0,1-3.3-11.22l.64-1.11A8.05,8.05,0,0,1,442.21,791l9.82,6.45A8,8,0,0,1,454.57,808.25Z"/><path class="cls-45" d="M434.13,695.05l-24.89,27.74,25.66,23c1.38,1.23,3.68.91,5.14-.72l22.24-24.78a13.32,13.32,0,0,0-1-18.8L452.92,694A13.31,13.31,0,0,0,434.13,695.05Z"/><path class="cls-4" d="M469,712.7c9.84-1.15,19.71-2.06,29.58-3-3.17-15.19-6.09-30.42-9.22-45.61q-11.55,1.62-23.11,3.19Q467.84,690,469,712.7Z"/><path class="cls-4" d="M499.68,678.12l-5.09.65c-11.48,1.47-33-5.24-34.5-16.72l-1.38-10.79a21,21,0,0,1,18.14-23.44l5.09-.65a21,21,0,0,1,23.44,18.13l1.38,10.79C508.23,667.57,511.17,676.66,499.68,678.12Z"/><rect class="cls-3" x="471.3" y="622.27" width="40.44" height="21.92" rx="10.96" transform="translate(908.63 1317.78) rotate(-173.54)"/><rect class="cls-3" x="450.09" y="626.64" width="27.58" height="21.92" rx="10.96" transform="translate(1149.11 1027.68) rotate(155.69)"/><path class="cls-45" d="M440,691.07h86.23a0,0,0,0,1,0,0v94.57a11,11,0,0,1-11,11H451a11,11,0,0,1-11-11V691.07a0,0,0,0,1,0,0Z" transform="translate(966.25 1487.68) rotate(-180)"/><path class="cls-4" d="M489.46,1048.76l-3.34,27.84h15.24l4.25-27.77Z"/><path class="cls-4" d="M536.78,1085.85h-51.7l1-9.25h15.24S537.46,1079.75,536.78,1085.85Z"/><path class="cls-7" d="M486.68,1071.7l-1.59,14.15h52.43c1.4-12.48-35.34-14.15-35.34-14.15Z"/><path class="cls-9" d="M515.55,1056.29l-17.26.17-17.26.17,10.73-130.8L475.53,790.71h50.12c1.89,0,3.48,2.62,3.74,4.49l3.42,122.4Z"/><path class="cls-4" d="M425.62,1048.49l-6.33,28.11h15.24l7.24-28.06Z"/><path class="cls-4" d="M469,1085.85H417.28l2-9.25h15.24S470.3,1079.75,469,1085.85Z"/><path class="cls-7" d="M420.37,1071.7l-3.08,14.15h52.43c2.71-12.48-33.86-14.15-33.86-14.15Z"/><path class="cls-9" d="M450.86,1056.29l-17.28.17-17.29.17,24.49-130.8-2-132.68a2.4,2.4,0,0,1,2.4-2.44h47.68c1.89,0,3.75,0,3.75,0L482.69,917.6Z"/><path class="cls-4" d="M604.47,679.75h0a8,8,0,0,1,5.15,9.8l-3.17,11.31a8.05,8.05,0,0,1-10.35,5.44l-1.22-.41A8,8,0,0,1,590,695.26l4.39-10.9A8.06,8.06,0,0,1,604.47,679.75Z"/><path class="cls-4" d="M597.12,701.31l-7.21-2.46-33.63,45.29-13.74-18.27-19.18,18.64,32.88,27.62,48.1-68.36Z"/><path class="cls-14" d="M546.42,708.63,587.08,726a.81.81,0,0,0,1-.41l25-54.8a.77.77,0,0,0-.4-1l-40.66-17.36a.81.81,0,0,0-1,.41L546,707.6A.77.77,0,0,0,546.42,708.63Z"/><path class="cls-46" d="M572.12,652.39h0l40.66,17.36a.77.77,0,0,1,.4,1l-25,54.8a.81.81,0,0,1-1,.41h0l-40.66-17.36a.77.77,0,0,1-.4-1l25.05-54.8a.81.81,0,0,1,1-.41m.18-.43a1.28,1.28,0,0,0-1.65.65l-25,54.8a1.23,1.23,0,0,0,0,1,1.26,1.26,0,0,0,.67.69l40.66,17.36a1.28,1.28,0,0,0,1.65-.65L613.6,671a1.23,1.23,0,0,0,0-1,1.26,1.26,0,0,0-.67-.69L572.3,652Z"/><g class="cls-47"><polygon class="cls-46" points="609.17 672.69 586.16 723.04 548.47 706.94 577.49 659.17 609.17 672.69"/></g><path class="cls-25" d="M546.19,704.05,583,719.77l14.23-21a142.43,142.43,0,0,1,11.91-26.05l-36.83-15.73-11.76,25.74Z"/><polygon class="cls-25" points="599.71 682.31 593.61 679.75 596.01 673.59 602.11 676.14 599.71 682.31"/><path d="M602,676.19l-2.33,6-5.93-2.48,2.33-6,5.93,2.48m.12-.05-6.1-2.55-2.4,6.16,6.1,2.56,2.4-6.17Z"/><polygon class="cls-25" points="594.77 693.13 588.66 690.58 591.07 684.41 597.17 686.96 594.77 693.13"/><path d="M597.05,687l-2.34,6-5.93-2.49,2.34-6,5.93,2.48m.12,0-6.1-2.55-2.41,6.16,6.11,2.56,2.4-6.17Z"/><polygon class="cls-25" points="583.24 701.16 589.32 703.76 593.37 698.29 587.29 695.7 583.24 701.16"/><path d="M587.32,695.81l5.91,2.52-3.94,5.31-5.91-2.52,3.94-5.31m0-.11-4,5.46,6.08,2.6,4-5.47-6.08-2.59Z"/><polygon class="cls-25" points="575.96 710.98 582.04 713.58 586.09 708.12 580.01 705.52 575.96 710.98"/><path d="M580,705.63l5.9,2.53-3.93,5.3-5.91-2.52,3.94-5.31m0-.11L576,711l6.08,2.6,4.05-5.46-6.08-2.6Z"/><path class="cls-4" d="M595.21,678.6c.18.4.35.8.55,1.2a.85.85,0,0,0,1,.5,5,5,0,0,0,1.08-.54l1.09-.6c1.47-.83,2.93-1.69,4.36-2.6a.45.45,0,0,0,.07-.61.44.44,0,0,0-.61-.09q-1.87,1.18-3.81,2.28c-.64.37-1.3.73-1.95,1.09l-.22.11s-.15,0-.19.09-.06,0,0,0a.9.9,0,0,1-.07-.14c-.16-.36-.32-.71-.49-1.07a.43.43,0,0,0-.79.34Z"/><path class="cls-4" d="M590,689.15c.18.4.35.81.55,1.2a.85.85,0,0,0,1,.5,5,5,0,0,0,1.08-.54c.37-.19.73-.39,1.09-.6q2.21-1.25,4.36-2.59a.46.46,0,0,0,.07-.62.43.43,0,0,0-.61-.08q-1.87,1.17-3.81,2.28l-2,1.08-.22.12a.64.64,0,0,0-.19.08s-.06,0,0,0a.61.61,0,0,1-.07-.14c-.16-.36-.32-.71-.49-1.07a.43.43,0,0,0-.79.34Z"/><path class="cls-4" d="M585.55,700c.24.43.48.86.73,1.28s.61.63,1,.5a3.38,3.38,0,0,0,.91-.61l.89-.68q1.81-1.41,3.56-2.93a.55.55,0,0,0,0-.67.39.39,0,0,0-.58-.07c-1,.89-2,1.75-3.1,2.58l-1.61,1.22-.18.14s-.13,0-.16.1-.06,0,0,0l-.08-.15c-.22-.38-.43-.76-.65-1.13-.31-.55-1-.17-.67.38Z"/><path class="cls-4" d="M578.45,709.65c.24.43.47.86.72,1.27s.62.64,1,.51a3.18,3.18,0,0,0,.9-.61l.9-.68q1.81-1.41,3.55-2.93c.16-.14.11-.48,0-.67a.39.39,0,0,0-.58-.07c-1,.89-2,1.75-3.11,2.58-.53.41-1.06.82-1.6,1.22l-.18.14s-.14.05-.16.1-.06,0,0,0a.7.7,0,0,1-.08-.14c-.22-.38-.43-.76-.65-1.13-.31-.55-1-.17-.67.38Z"/><path class="cls-46" d="M594.33,674.46a.42.42,0,1,0,.33-.77l-19.45-8.3h0a.41.41,0,0,0-.55.22.42.42,0,0,0,.22.55l19.45,8.3Z"/><path class="cls-46" d="M593.56,676.16a.43.43,0,0,0,.55-.22.42.42,0,0,0-.23-.55l-19.44-8.31h0a.42.42,0,0,0-.55.22.41.41,0,0,0,.22.55l19.45,8.31Z"/><path class="cls-46" d="M587.13,675.4a.43.43,0,0,0,.55-.22.42.42,0,0,0-.23-.55l-13.75-5.87h0a.42.42,0,1,0-.33.77l13.75,5.87Z"/><path class="cls-46" d="M589.37,685.31a.42.42,0,1,0,.33-.77l-19.45-8.31h0a.42.42,0,0,0-.55.23.43.43,0,0,0,.22.55l19.45,8.3Z"/><path class="cls-46" d="M588.6,687a.42.42,0,0,0,.33-.78l-19.45-8.3h0a.42.42,0,0,0-.33.77L588.6,687Z"/><path class="cls-46" d="M582.17,686.25a.42.42,0,0,0,.33-.77l-13.76-5.87h0a.42.42,0,0,0-.33.77l13.76,5.87Z"/><path class="cls-46" d="M583.82,696.21a.42.42,0,1,0,.33-.77l-19.45-8.31h0a.42.42,0,1,0-.33.77l19.45,8.31Z"/><path class="cls-46" d="M582.68,697.75A.42.42,0,0,0,583,697l-19.45-8.31h0a.42.42,0,0,0-.33.77l19.45,8.31Z"/><path class="cls-46" d="M575.88,696.84a.42.42,0,0,0,.55-.22.43.43,0,0,0-.22-.56l-13.75-5.87h0a.42.42,0,0,0-.55.22.41.41,0,0,0,.22.55l13.75,5.88Z"/><path class="cls-46" d="M576.52,706.06a.42.42,0,1,0,.32-.78L557.4,697h0a.42.42,0,0,0-.55.22.41.41,0,0,0,.22.55l19.45,8.3Z"/><path class="cls-46" d="M575.38,707.59a.41.41,0,0,0,.54-.22.41.41,0,0,0-.22-.55l-19.44-8.3h0a.41.41,0,0,0-.54.22.41.41,0,0,0,.22.55l19.44,8.3Z"/><path class="cls-46" d="M568.58,706.68a.42.42,0,1,0,.33-.77L555.15,700h0a.42.42,0,0,0-.33.77l13.76,5.87Z"/><path class="cls-48" d="M583.61,663.11l12.89,5.51a1.16,1.16,0,0,0,1.49-.57l.09-.22a1.06,1.06,0,0,0-.56-1.44l-12.89-5.51a1.15,1.15,0,0,0-1.49.58l-.09.21A1.06,1.06,0,0,0,583.61,663.11Z"/><path class="cls-49" d="M584.62,660.88h0l12.89,5.51a1.06,1.06,0,0,1,.56,1.44l-.09.22a1.15,1.15,0,0,1-1.48.57h0l-12.89-5.51a1.06,1.06,0,0,1-.56-1.44l.09-.21a1.15,1.15,0,0,1,1.48-.58m.11-.26a1.44,1.44,0,0,0-1.84.72l-.1.21a1.39,1.39,0,0,0,0,1.06,1.35,1.35,0,0,0,.74.76l12.89,5.51h0a1.44,1.44,0,0,0,1.84-.72l.1-.21a1.39,1.39,0,0,0,0-1.06,1.35,1.35,0,0,0-.74-.76l-12.89-5.51Z"/><path class="cls-45" d="M530.54,699.33l23,26.59-26.08,22.53c-1.4,1.21-3.7.85-5.13-.81l-20.37-23.58a15.43,15.43,0,0,1,1.59-21.78l5.24-4.54A15.45,15.45,0,0,1,530.54,699.33Z"/><path class="cls-4" d="M604.21,705a7.67,7.67,0,0,0,1.92-3.26,20.68,20.68,0,0,0,.71-3.5,16,16,0,0,0,0-3.72,8.38,8.38,0,0,0-1.54-4.08,2.24,2.24,0,0,0-4,1.71l.12.76a9,9,0,0,1,.11,2,19,19,0,0,1-.29,2.59c-.18.89-.37,1.8-.63,2.67a10.14,10.14,0,0,0-.39,2.62l0,.65a2.34,2.34,0,0,0,2.43,2.27A2.3,2.3,0,0,0,604.21,705Z"/><path class="cls-3" d="M474.82,621.14c25.19-1.46,27.71,22.38,27.71,22.38,2,15.42-8.75,31.48-31,31.48s-24.83-11.31-24.83-24.35S449.64,622.61,474.82,621.14Z"/><rect class="cls-3" x="294.96" y="356.72" width="44.19" height="44.19" rx="3.1" transform="translate(634.11 757.62) rotate(180)"/><path class="cls-4" d="M305.81,430.14c7.78.08,15.55.35,23.33.63-1-12.14-1.72-24.28-2.65-36.42q-9.15.11-18.31.18Q307.19,412.35,305.81,430.14Z"/><rect class="cls-4" x="300.06" y="364.83" width="42.94" height="41.44" rx="8.67" transform="translate(643.05 771.09) rotate(180)"/><rect class="cls-3" x="298.36" y="361.9" width="13.98" height="32.45" rx="3.1" transform="translate(610.71 756.25) rotate(180)"/><path class="cls-4" d="M309.4,387.35a7.11,7.11,0,0,1-7.89,7.36,8.62,8.62,0,0,1-8.09-8.47,7.11,7.11,0,0,1,7.9-7.36A8.57,8.57,0,0,1,309.4,387.35Z"/><circle class="cls-3" cx="339.67" cy="366.73" r="12.12"/><circle class="cls-3" cx="323.59" cy="366.73" r="12.12"/><polygon class="cls-4" points="357.76 453.96 369.1 481.13 387.03 456.95 396.15 467.51 366.92 506.83 331.72 459.24 357.76 453.96"/><path class="cls-4" d="M404,447h0a7.31,7.31,0,0,1,4.07,9.18l-3.56,10a7.3,7.3,0,0,1-9.7,4.3l-1.07-.45a7.29,7.29,0,0,1-3.76-9.91l4.63-9.6A7.31,7.31,0,0,1,404,447Z"/><path class="cls-50" d="M343.19,419.57l-20,7.58a6.8,6.8,0,0,0-3.88,9l16.26,39.21,2.26-.69c3.52-1.06,7.12-2.09,10.6-3.09l3.77-1.08c3.82-1.1,6.75-2,9.51-2.86l2.39-.77-11.89-42.74A6.81,6.81,0,0,0,343.19,419.57Z"/><path class="cls-50" d="M277.87,418.2H353.5a0,0,0,0,1,0,0v84a8.48,8.48,0,0,1-8.48,8.48H286.35a8.48,8.48,0,0,1-8.48-8.48v-84A0,0,0,0,1,277.87,418.2Z" transform="translate(631.37 928.87) rotate(180)"/><path class="cls-51" d="M276.27,735.21l8.19,1.1a2.5,2.5,0,0,1,2.15,2.93l-2.93,19.69-13.39,0L272.73,738A3.26,3.26,0,0,1,276.27,735.21Z"/><path class="cls-51" d="M314.81,767l-45.39.08.87-8.09,13.39,0S315.39,761.63,314.81,767Z"/><path class="cls-52" d="M270.77,754.67l-1.35,12.38,46-.08c1.19-10.92-31.08-12.33-31.08-12.33Z"/><path class="cls-8" d="M296.18,743l-15-.73-15-.74,13.4-114.37-4-114.66c0-1,.88-3.31,1.91-3.34h45.22l-8.45,118.91Z"/><path class="cls-4" d="M352.63,729l-2.19,30.75H337.07l1.11-28.86a1.73,1.73,0,0,1,1.42-1.62l11.14-2A1.6,1.6,0,0,1,352.63,729Z"/><path class="cls-4" d="M382.16,767.89H336.82l.25-8.11h13.37S382.32,762.54,382.16,767.89Z"/><path class="cls-7" d="M337.21,755.49l-.39,12.4h46c.34-10.94-32-12.4-32-12.4Z"/><path class="cls-9" d="M361.43,742l-15.13.15-15.13.15.08-114.6-24-118.51h44c1.66,0,3.05.68,3.29,2.32l12.13,109Z"/><polygon class="cls-4" points="259.92 438.81 273.46 461.05 259.35 470.57 279.9 520.46 273.87 523.83 267.83 527.2 233.44 462.58 259.92 438.81"/><path class="cls-4" d="M272.75,541.33h0a7.31,7.31,0,0,1-7.32-6.87l-.63-10.64a7.31,7.31,0,0,1,7.26-7.73h1.17a7.31,7.31,0,0,1,7.32,7.68L280,534.4A7.31,7.31,0,0,1,272.75,541.33Z"/><path class="cls-50" d="M301.22,433.41l-11-13a8.87,8.87,0,0,0-12.71-.87l-30,27,1.41,1.91c2.17,2.95,4.34,6,6.44,8.95l2.28,3.2c2.31,3.23,4.12,5.7,5.87,8l1.52,2,34.49-24.18A8.86,8.86,0,0,0,301.22,433.41Z"/><path class="cls-4" d="M400.59,452.14h0a3.4,3.4,0,0,1,2.37,4L401.84,461a3.4,3.4,0,0,1-4.25,2.5l-.52-.15A3.4,3.4,0,0,1,394.8,459l1.64-4.68A3.4,3.4,0,0,1,400.59,452.14Z"/><path class="cls-53" d="M432.9,429.69l-20.43,45.15a.73.73,0,0,1-.54.41l-.84.13a.7.7,0,0,1-.48-.11.6.6,0,0,0,.14-.2L431,429.68a.62.62,0,0,0-.32-.84l-20-8.94a.61.61,0,0,0-.64.09.72.72,0,0,1,.67-.36l2.46.28,19.27,8.67A.84.84,0,0,1,432.9,429.69Z"/><path class="cls-45" d="M410.18,475.61a.78.78,0,0,1-.33-.07l-20-8.93a.77.77,0,0,1-.42-.45.81.81,0,0,1,0-.61l20.3-45.39a.79.79,0,0,1,.73-.48.88.88,0,0,1,.32.07l20,8.94a.8.8,0,0,1,.4,1.06l-20.29,45.39A.8.8,0,0,1,410.18,475.61Z"/><path class="cls-54" d="M410.48,419.85a.57.57,0,0,1,.25.06l20,8.93a.64.64,0,0,1,.32.84l-20.29,45.39a.64.64,0,0,1-.58.38.58.58,0,0,1-.26-.06l-20-8.93a.63.63,0,0,1-.32-.84l20.29-45.39a.62.62,0,0,1,.58-.38m0-.33h0a1,1,0,0,0-.89.57L389.3,465.48a1,1,0,0,0,0,.74,1,1,0,0,0,.51.54l20,8.94a1.1,1.1,0,0,0,.4.08,1,1,0,0,0,.88-.57l20.29-45.39a1,1,0,0,0,0-.74,1,1,0,0,0-.51-.54l-20-8.94a1.09,1.09,0,0,0-.39-.08Z"/><rect class="cls-14" x="400.11" y="425.63" width="20.87" height="43.05" rx="0.26" transform="translate(218.22 -128.61) rotate(24.09)"/><rect class="cls-55" x="393.27" y="461.89" width="19.55" height="4.08" rx="0.45" transform="translate(224.42 -124.09) rotate(24.09)"/><path class="cls-56" d="M401.34,469.3c-.26.58-.77.91-1.14.75a.67.67,0,0,1-.35-.57h0a1.6,1.6,0,0,1,.14-.78c.26-.58.77-.91,1.14-.74a.58.58,0,0,1,.33.47h0A1.37,1.37,0,0,1,401.34,469.3Z"/><path class="cls-25" d="M401.33,469.21c-.26.57-.77.91-1.14.74a.63.63,0,0,1-.34-.47h0a1.6,1.6,0,0,1,.14-.78c.26-.58.77-.91,1.14-.74a.58.58,0,0,1,.33.47h0A1.5,1.5,0,0,1,401.33,469.21Z"/><ellipse class="cls-57" cx="396.02" cy="460.61" rx="1.18" ry="0.76" transform="translate(-186.11 634.18) rotate(-65.91)"/><ellipse class="cls-57" cx="410.31" cy="467" rx="1.18" ry="0.76" transform="translate(-183.48 651.01) rotate(-65.91)"/><rect class="cls-57" x="399.68" y="462.02" width="2.37" height="1.53" transform="translate(-185.22 639.88) rotate(-65.91)"/><rect class="cls-57" x="404.52" y="464.18" width="2.37" height="1.53" rx="0.52" transform="translate(-184.33 645.59) rotate(-65.91)"/><polygon class="cls-57" points="418.19 451.99 401.88 444.7 410.8 425.34 426.85 432.54 418.19 451.99"/><line class="cls-58" x1="411.14" y1="428.99" x2="417.99" y2="431.93"/><line class="cls-58" x1="410.17" y1="431.41" x2="421.67" y2="436.24"/><path class="cls-4" d="M386.69,459.18a7.65,7.65,0,0,1,.43-3.75,21.19,21.19,0,0,1,1.55-3.22,15.56,15.56,0,0,1,2.26-3,8.31,8.31,0,0,1,3.69-2.32,2.24,2.24,0,0,1,2.17,3.78l-.57.53a10.61,10.61,0,0,0-1.27,1.5,18.9,18.9,0,0,0-1.32,2.24c-.4.82-.79,1.66-1.12,2.51a10,10,0,0,1-1.26,2.33l-.41.5a2.35,2.35,0,0,1-4.15-1.13Z"/><path class="cls-59" d="M203.21,375.33a43.61,43.61,0,0,0,18-3.9l35.39,20.68L240.49,354.4a43.67,43.67,0,1,0-37.28,20.93Z"/><path class="cls-60" d="M219.79,336c.13-6.29-4-11.6-9.37-12.09l-14.79-1.35c-5.81-.53-10.82,4.74-10.95,11.53l0,1.89c-.13,6.79,4.65,12.33,10.48,12.12l14.83-.54c5.4-.2,9.72-5.27,9.84-11.56"/><path class="cls-60" d="M198.36,328.45a16.16,16.16,0,0,0,6.21-17c-.94-2.69-5.16-2.1-5.37.69,0,4.38-3.42,8.3-4.87,12.29C193.12,327,195.8,329.87,198.36,328.45Z"/><path class="cls-60" d="M217.56,329.35h-13a3,3,0,1,1,0-5.94h13a3,3,0,1,1,0,5.94Z"/><path class="cls-60" d="M219.76,335.31H206.85a2.94,2.94,0,0,1,0-5.88h12.91a2.94,2.94,0,1,1,0,5.88Z"/><path class="cls-60" d="M219.07,341.53H206a3,3,0,0,1,0-5.95h13a3,3,0,1,1,0,5.95Z"/><path class="cls-60" d="M217.8,347.38H204.89a2.94,2.94,0,1,1,0-5.88H217.8a2.94,2.94,0,1,1,0,5.88Z"/><path class="cls-4" d="M791.37,429.86,778,432.7l26.76,63.9,31.75,18.68a13.85,13.85,0,1,0,17.24-21.53L819.11,479.8l-27.27-47Z"/><path class="cls-4" d="M780.27,412.26a7.3,7.3,0,0,0-5.27,8.53l2.16,10.42a7.29,7.29,0,0,0,9,5.57l1.13-.3a7.29,7.29,0,0,0,5.06-9.3l-3.28-10.12a7.29,7.29,0,0,0-8.8-4.8"/><path class="cls-61" d="M856.47,527.72l-21.05-12.45L850,492.91a3.35,3.35,0,0,1,4.67-.58l20.82,11.52a15.26,15.26,0,1,1-19,23.87"/><path class="cls-3" d="M925,445l-5.48,3.28A8.88,8.88,0,0,1,910.41,433l5.48-3.28A8.88,8.88,0,1,1,925,445"/><path class="cls-3" d="M916,501.4l-53.75-5.57a3,3,0,0,1-2.65-3.26l4.49-43.37a25.13,25.13,0,0,1,27.58-22.4l9.68,1a25.14,25.14,0,0,1,22.41,27.59l-4.5,43.36A3,3,0,0,1,916,501.4"/><path class="cls-4" d="M902,515.62c-8.94-.83-17.9-1.44-26.85-2,2.54-13.81,4.86-27.66,7.36-41.47l21,2.38q-1,20.56-1.51,41.14"/><path class="cls-4" d="M873.43,485l4.62.48c10.43,1.08,29.81-5.45,30.89-15.88l1-9.79A19,19,0,0,0,893,439l-4.62-.48a19,19,0,0,0-20.84,16.91l-1,9.8c-1.08,10.42-3.54,18.71,6.89,19.79"/><path class="cls-4" d="M903,466.1a8.19,8.19,0,0,0,8.18,9.38,9.93,9.93,0,0,0,10.29-8.75,8.21,8.21,0,0,0-8.19-9.39A9.9,9.9,0,0,0,903,466.1"/><path class="cls-3" d="M881.81,450.17l-5.58,3.11a8.89,8.89,0,0,1-8.66-15.52l5.58-3.11a8.89,8.89,0,0,1,8.66,15.52"/><path class="cls-3" d="M891.35,454.92l-4.94-4.06a8.88,8.88,0,1,1,11.26-13.74l5,4.05a8.89,8.89,0,0,1-11.27,13.75"/><path class="cls-3" d="M900.79,459l1.37-10.4a5.52,5.52,0,0,1,6.18-4.74h0a5.51,5.51,0,0,1,4.74,6.18l-1.37,10.4a5.51,5.51,0,0,1-6.17,4.74h0a5.51,5.51,0,0,1-4.74-6.18"/><path class="cls-61" d="M930.86,591.64l-78.12-1,5.07-38.7.5-49.2a7.18,7.18,0,0,1,7.26-7.49l54.86.71a5,5,0,0,1,4.94,5.24L925,554.35l5.84,37.29Z"/><path class="cls-4" d="M875.86,812.37l.13,32.32-7,.14-7,.13-1.16-29.84c5-.72,10.07-1.56,15-2.75"/><path class="cls-4" d="M827.92,853.81l47.49-.91.58-8.21L862,845s-33.69,3.44-34.07,8.85"/><path class="cls-7" d="M876.29,840.35l-.89,12.55-48.17.93c.79-11.07,34.82-13.21,34.82-13.21l14.24-.27Z"/><path class="cls-8" d="M855,824.31l21.81-.84,5.05-119s14.72-70.09,16.87-120.86H852.6L845.48,700,855,824.31Z"/><path class="cls-4" d="M928.72,810l4,32.9-6.9.34-6.89.34-4.74-30.34c4.88-.89,9.75-1.89,14.5-3.24"/><path class="cls-4" d="M886.41,853.58l46.75-2.31-.41-8.36-13.79.68s-32.82,4.47-32.55,10"/><path class="cls-7" d="M932.52,838.47l.63,12.8-47.41,2.35c-.56-11.29,32.77-14.45,32.77-14.45l14-.7Z"/><path class="cls-9" d="M912.28,826l22.16-1.37L927.56,705.2s8-70.42,5.2-121.59h-48.3l6.29,117.11L912.28,826Z"/><path class="cls-4" d="M934.55,612.9l13.9-51.34-8.71-34.33c-1.5-10.13-24-9.39-23.36,5.37L929,560.42,924,610Z"/><path class="cls-4" d="M922.39,629a7.29,7.29,0,0,0,9.14-4.11l4.05-9.83a7.3,7.3,0,0,0-4.35-9.66l-1.1-.38a7.28,7.28,0,0,0-9.4,4.85l-3,10.22a7.3,7.3,0,0,0,4.61,8.91"/><path class="cls-61" d="M907.88,512.75l7.65,23,25.58-6.61a2.76,2.76,0,0,0,1.88-3.41l-5.6-22.32a11.51,11.51,0,0,0-14.9-8.09L915,497.9a11.51,11.51,0,0,0-7.08,14.85"/><path class="cls-59" d="M996.79,411a43.45,43.45,0,0,1-18-3.9l-35.39,20.68,16.14-37.71A43.67,43.67,0,1,1,996.79,411Z"/><polygon class="cls-60" points="989.75 384.7 975.06 370.01 981.99 363.08 989.75 370.84 1011.66 348.94 1018.58 355.87 989.75 384.7"/><circle class="cls-62" cx="418.55" cy="282.48" r="10.48"/><circle class="cls-62" cx="683.67" cy="926.91" r="8.24"/><circle class="cls-62" cx="579.24" cy="166.23" r="6.68"/><circle class="cls-62" cx="789.02" cy="730.16" r="7.53"/><circle class="cls-62" cx="360.86" cy="888.04" r="6.68"/><circle class="cls-62" cx="838.77" cy="317.23" r="4.54"/><path class="cls-63" d="M803.43,153.22a36.72,36.72,0,1,1-36.72-36.72A36.75,36.75,0,0,1,803.43,153.22Z"/><path class="cls-64" d="M766.71,192.29a39.07,39.07,0,1,1,39.07-39.07A39.12,39.12,0,0,1,766.71,192.29Zm0-75.79a36.72,36.72,0,1,0,36.72,36.72A36.76,36.76,0,0,0,766.71,116.5Z"/><polygon class="cls-64" points="750.37 157.23 768.85 157.23 768.85 127.54 766.5 127.54 766.5 154.88 750.37 154.88 750.37 157.23"/><g class="cls-65"><path class="cls-66" d="M718.37,382l-30.16-33.62a2.66,2.66,0,0,0-.31-3.45l-15.27-15.39a10.82,10.82,0,0,0-8.62-3.15,26.22,26.22,0,0,0,4.45-14.66v-25.1a23.17,23.17,0,0,0-4-13l1.36-1A8.24,8.24,0,0,0,667.49,261h0A8.24,8.24,0,0,0,656,259.32l-4.75,3.55a9.38,9.38,0,0,0-1,.94,23.76,23.76,0,0,0-5-.54H629a23.27,23.27,0,0,0-18.71,9.4l-2.46,1.73a8.24,8.24,0,0,0-2.12,11.31c0,.29,0,.58,0,.87v25.1c0,.17,0,.34,0,.51a6.39,6.39,0,0,0-1.25,1.34l-5.8,8.18a6.71,6.71,0,0,0-1,2.26l-1,2-.16.39a14.73,14.73,0,0,0-2.62,2.56l-11,19.54a3.38,3.38,0,0,0-.13,3.76l-9.42,29a5.75,5.75,0,0,0-.39,1.12c-2.68,6.61,12.08,14,16.5,6.44l14.17-22.52.76.5.59-1,.55,12.88-6,30.11h-.78l-.19,4.87-.23,1.13h.18l-4.22,103.74L596.43,548l-36.22.05a3.39,3.39,0,0,0-3.43,3.23l-.12,63.31h-.09L553,627.78c-18.25,4.05-29.84,10.09-29.84,16.84,0,3.18,2.58,6.2,7.21,8.93l-.06,0v6.78a7.09,7.09,0,0,0,2.22,4.79v36.6l-2-2.35a15.3,15.3,0,0,0-7.15-4.65,10.91,10.91,0,0,0-8.11-3.61H494.75q-1.2-6.06-2.42-12.12c.79,0,1.55-.09,2.26-.18l5.09-.65c11.49-1.46,8.55-10.55,7.08-22l-1.38-10.79c0-.35-.1-.7-.16-1a11,11,0,0,0,6.4-8.75h0A11,11,0,0,0,502,623.38l-18.4-2.08a11.2,11.2,0,0,0-2.59,0,34.11,34.11,0,0,0-6.15-.18c-25.18,1.47-28.13,16.46-28.13,29.51,0,12,2.2,22.59,20,24.15q.56,8.13,1,16.27H451a11.11,11.11,0,0,0-2.54.31,13.32,13.32,0,0,0-14.31,3.67l-24.89,27.74,1.11,1L390.7,746.7l38.71,54.39a8.05,8.05,0,0,0,4.08,4.95l5.53,2.82,1.76,117-24.49,130.8,7.51-.08-3.4,15.15h0l-.8,3.67-.28,1.23-2,9.25h52.44c2.71-12.48-33.86-14.15-33.86-14.15h-.06l3.94-15.3,11.12-.11L482.69,917.6l3.19-40.76,5.88,49L481,1056.63l7.5-.08-1.82,15.15h0l-.41,3.67-.15,1.23-1,9.25h52.44c1.4-12.48-35.34-14.15-35.34-14.15h-.07l2.34-15.3,11.1-.11L532.81,917.6l-3.42-122.4c-.23-1.67-1.53-3.91-3.15-4.39V749.07a2.9,2.9,0,0,0,1.19-.62l.31-.26,4.83,4v61.11c0,4.1,10.27,4.1,10.27,0V760.88l13.4,11.25L603,705.64V833.08c0,3.36,9.43,3.36,9.43,0V680.36c24.58-.43,46-3.87,58.9-8.93V813.35c0,3.53,10.28,3.53,10.28,0V665.49a7.4,7.4,0,0,0,2.62-5.2v-6.43l-.16.08c5.06-2.83,7.9-6,7.9-9.32,0-4.65-5.51-9-14.91-12.53l-5.56-108.73s1.38-43.1.56-85.07a7,7,0,0,0,.95-1.52l4.11-9.14a6.83,6.83,0,0,0,.45-4.27l.33.05Zm-47.12,30.66c-.06-1.28-.13-2.56-.19-3.82h-.67l-6-29.4.83-17.76,2,1.74a10.09,10.09,0,0,0,1,1.05l1.83,1.43.43.36,0,0L692.15,383Zm-42.8,110.06s2.57-16.29,5.39-38.55l3,35L641.78,548l-14.47,0ZM533.05,655l-.13-.07Zm6.35,2.64h0Zm-3.35-1.29-.09,0Zm-107.24,84,6.09,5.46c1.37,1.23,3.65.92,5.11-.69V790a7.44,7.44,0,0,0-1.54-.28L418.17,749Zm118.07-8.7,6.63-5.73-10.67-12.35v-42.3a101.82,101.82,0,0,0,17,4.86l-10.76,23.56-2.94,4.36.79.33-1.38,3a1.23,1.23,0,0,0,0,1,1.26,1.26,0,0,0,.67.69l27.4,11.7-17.36,23.38Zm129.84-74.38.32-.12Zm1.63-.63.21-.08ZM680,656l.29-.13Zm1.41-.64.26-.12Zm1.5-.73.22-.12Z"/><path class="cls-67" d="M350.8,755.49h-.06l1-13.4,9.73-.1,5.23-121.5-12.13-109a2.37,2.37,0,0,0-1-1.7V488.69l13.42,18.14,27.18-36.56.67.28a7.23,7.23,0,0,0,4.38.39l10.63,4.76a1.1,1.1,0,0,0,.4.08,1,1,0,0,0,.78-.41h.13l.84-.13a.73.73,0,0,0,.54-.41l20.43-45.15a.84.84,0,0,0-.41-1.11l-19.27-8.67-2.24-.26-.11,0a1.09,1.09,0,0,0-.39-.08,1,1,0,0,0-.89.57l-12.27,27.47-.28.18a2.23,2.23,0,0,0-2.42-.82,8.31,8.31,0,0,0-3.69,2.32,15.56,15.56,0,0,0-2.26,3,21.19,21.19,0,0,0-1.55,3.22,10.08,10.08,0,0,0-.46,2L369.1,481.13l-5.85-14,.81-.26-10.56-38v-2.21A8.48,8.48,0,0,0,345,418.2H328.2l-.84-11.93h7A8.67,8.67,0,0,0,343,397.6V378.38a12.12,12.12,0,1,0-10.14-21.66h-2.44a12.08,12.08,0,0,0-13.64,0H298.06a3.09,3.09,0,0,0-3.1,3.09v21.72a7.42,7.42,0,0,0-1.54,4.71A8.32,8.32,0,0,0,295,391v6.77a3.1,3.1,0,0,0,3.1,3.1h2.65a8.68,8.68,0,0,0,6.77,5.26q-.37,6-.8,12H287.47a8.88,8.88,0,0,0-10,1.31l-30,27,1.41,1.91.11.16-15.61,14L265,521.82a7.35,7.35,0,0,0-.17,2l.63,10.64a7.28,7.28,0,0,0,11,5.83l3.05,86.89L266.1,741.55l6.18.31-1.49,12.81h0l-.35,3.21-.13,1.08-.87,8.09,45.39-.08h.65c1.19-10.92-31.08-12.33-31.08-12.33h-.06l1.8-12.11,10.06.49,18-114.93,4.46-62.82,12.63,62.42-.08,114.6,6.58-.07-.52,13.27h0l-.1,3.21,0,1.08-.25,8.11h46C383.15,757,350.8,755.49,350.8,755.49ZM263.12,468l.41.53,1.52,2,12.82-9v47.58h-.48c-.59,0-1.12.79-1.47,1.63l-16.57-40.23Z"/><path class="cls-68" d="M240.49,354.4a43.69,43.69,0,1,0-19.25,17l35.39,20.68Z"/><path class="cls-69" d="M940.28,529.35l.83-.21a2.76,2.76,0,0,0,1.88-3.41l-5.6-22.32a11.51,11.51,0,0,0-14.9-8.09l-1.88.64h-1.09l4.21-40.55a25.05,25.05,0,0,0-.75-9.18l2-1.21a8.88,8.88,0,1,0-9.12-15.25l-3.39,2a24.94,24.94,0,0,0-11.18-4l-9.68-1a25.08,25.08,0,0,0-23,10.38l-1,.58A8.88,8.88,0,0,0,864,449.6l-4.45,43a3,3,0,0,0,2.65,3.26l.34,0a7,7,0,0,0-.77.4l-7.12-3.94a3.51,3.51,0,0,0-4.23.07l-31.33-12.6-27.25-47a7.24,7.24,0,0,0,.49-5.66l-3.28-10.12a7.29,7.29,0,0,0-8.8-4.8h0a7.3,7.3,0,0,0-5.27,8.53l2.16,10.42a7.19,7.19,0,0,0,1.65,3.32l26,62.07,30.93,18.2-.31.47,21.05,12.45a14.93,14.93,0,0,0,1.57,1.11l-.23,23.1-4.15,31.68H852.6L845.48,700,855,824.31l6.18-.24.64,16.57c-2.87.2-33.84,2.63-34.59,13.19l16-.31,32.18-.62.58-8.21h0v-.12l.3-4.22H876l-.06-16.85.9,0,5.05-119s3.33-15.86,7-38l1.84,34.2L912.28,826l3.89-.24,2.11,13.44c-2.82.29-33.07,3.66-32.54,14.43l.67,0h0l46.75-2.31-.41-8.36h0l0-.12-.21-4.32-.31,0-1.67-13.63,3.9-.24L927.56,705.2s4.72-41.79,5.63-84.38l2.39-5.8a7.31,7.31,0,0,0-.06-5.68l12.93-47.78Zm-12.49,42.72L925,554.35l0-2.61,3.92,8.68Z"/><path class="cls-70" d="M996.79,323.71a43.66,43.66,0,0,0-37.28,66.4l-16.14,37.71,35.39-20.68a43.66,43.66,0,1,0,18-83.43Z"/><circle class="cls-71" cx="418.55" cy="282.48" r="10.48" transform="translate(-39.84 70.69) rotate(-9.22)"/><circle class="cls-72" cx="683.67" cy="926.91" r="8.24"/><circle class="cls-73" cx="579.24" cy="166.23" r="6.68"/><circle class="cls-74" cx="789.02" cy="730.16" r="7.53" transform="translate(-285.2 771.78) rotate(-45)"/><circle class="cls-75" cx="360.86" cy="888.04" r="6.68"/><circle class="cls-76" cx="838.77" cy="317.23" r="4.54"/><path class="cls-77" d="M805.78,153.22a39.07,39.07,0,1,0-39.07,39.07A39.11,39.11,0,0,0,805.78,153.22Zm-2.35,0h0a36.72,36.72,0,0,0-51-33.83,36.72,36.72,0,0,1,51,33.83Zm-36.72,36.72A36.52,36.52,0,0,1,749,185.35a36.67,36.67,0,0,0,45.34-7.94A36.65,36.65,0,0,1,766.71,189.94Z"/></g></g></g></svg>