<svg id="Layer_1" data-name="Layer 1" xmlns="http://www.w3.org/2000/svg" viewBox="0 0 1200 1200"><defs><style>.cls-1{fill:#ededf4;}.cls-2{fill:#979797;}.cls-3{fill:#d8d8d8;}.cls-4{fill:#b9b9b9;}.cls-5{fill:#6b6b6b;}.cls-6{fill:#c7c7c7;}.cls-7{fill:#7d7d7d;}.cls-8{fill:none;}.cls-9{fill:#565656;}</style></defs><path class="cls-1" d="M122.29,626.51c-10.7,93.69,1.46,198,87.45,253.43,36.68,23.65,126,38.66,126,38.66h633c238-233.6,24.38-275.41,18.65-311.31s28.82-63.74,39-97.19c23.78-78.12,20-160.12-47.82-215-61.72-49.89-126.37-47.2-192.91-9.89-48.85,27.39-101.31,67.87-157.58,33.86-17.61-15-31.68-33.52-46.73-50.22-45.38-50.39-99.59-97.15-176.42-97.15C259.37,180.1,202,356.07,234.79,477.76c4.31,16,12.47,44.5-1.89,58.14-9.2,8.73-24.8,7-36.43,7.57C146.23,545.83,127.8,578.36,122.29,626.51Z"/><path class="cls-2" d="M806.85,720.2v57.14a17.13,17.13,0,0,1-17.12,17.11H467.55a17.13,17.13,0,0,1-17.11-17.11V720.2Z"/><path class="cls-3" d="M806.85,344.5V699.15H450.44V344.5c0-10.26,8.65-18.61,19.28-18.61H787.57C798.2,325.89,806.85,334.24,806.85,344.5Z"/><rect class="cls-4" x="449.47" y="703.65" width="358.41" height="12.05"/><path class="cls-5" d="M811.88,699.65h0V344.5c0-13-10.89-23.61-24.28-23.61H469.72c-13.39,0-24.28,10.59-24.28,23.61V704.15h0V715.2h0v62.14a22.14,22.14,0,0,0,22.11,22.11H789.73a22.14,22.14,0,0,0,22.12-22.11V719.7h0ZM450.44,344.5c0-10.26,8.65-18.61,19.28-18.61H787.57c10.63,0,19.28,8.35,19.28,18.61V699.15H450.44Zm-1,359.65H807.88V715.2H449.47Zm357.38,73.19a17.13,17.13,0,0,1-17.12,17.11H467.55a17.13,17.13,0,0,1-17.11-17.11V720.2H806.85Z"/><polygon class="cls-2" points="762.1 618.68 762.1 626.52 622.58 626.52 622.58 636.98 762.1 636.98 762.1 645.26 778.32 645.26 778.32 636.98 778.32 626.52 778.32 618.68 762.1 618.68"/><path class="cls-5" d="M780.32,647.26H760.1V639H620.58V624.53H760.1v-7.85h20.22Zm-16.22-4h12.22V620.68H764.1v7.85H624.58V635H764.1Z"/><path class="cls-6" d="M775.46,368V570a16.57,16.57,0,0,1-16.55,16.56H493.51A16.57,16.57,0,0,1,477,570V368a16.57,16.57,0,0,1,16.55-16.56h265.4A16.57,16.57,0,0,1,775.46,368Z"/><path class="cls-7" d="M758.91,590.6H493.51A20.58,20.58,0,0,1,473,570V368a20.58,20.58,0,0,1,20.55-20.56h265.4A20.58,20.58,0,0,1,779.46,368V570A20.58,20.58,0,0,1,758.91,590.6ZM493.51,351.47A16.57,16.57,0,0,0,477,368V570a16.57,16.57,0,0,0,16.55,16.56h265.4A16.57,16.57,0,0,0,775.46,570V368a16.57,16.57,0,0,0-16.55-16.56Z"/><rect class="cls-2" x="469.1" y="744.13" width="22.72" height="22.72"/><path class="cls-5" d="M494.32,769.35H466.6V741.63h27.72Zm-22.72-5h17.72V746.63H471.6Z"/><rect class="cls-2" x="759.37" y="744.13" width="22.72" height="22.72"/><path class="cls-5" d="M784.59,769.35H756.87V741.63h27.72Zm-22.72-5h17.72V746.63H761.87Z"/><path class="cls-2" d="M472.41,797.83c-9.62,9.65-30.22,20.71-104.79,20.71-110.49,0-133,3.81-139.39,11.82-1.82,2.28-2.34,5-1.59,8.36,1.51,6.71,8.15,10.89,19.75,12.41a85.85,85.85,0,0,0,14.88.51l.11,4.87c-15.83.24-35.11-1.91-38.82-13.22-2.34-7.13-2.14-12.23.62-16,9.63-13.29,51.91-13.71,128.38-13.71h16.06c56,0,88.15-6.11,101.25-19.24,9.17-9.2,9.14-21.59,9.1-35.93V758h5v.37C483,773.17,483.05,787.16,472.41,797.83Z"/><path class="cls-5" d="M259.12,861.53c-23.78,0-37.67-5.6-41.31-16.67-2.84-8.67-2.41-15.39,1.32-20.55,11.44-15.79,54.43-15.77,140.13-15.77h8.36c54.57,0,85.61-5.64,97.71-17.77C473,783,473,772.7,473,758.39V753h15v5.36c0,15.88.08,30.88-12,43-10.3,10.33-31.92,22.18-108.33,22.18-80.77,0-128.83,1.63-135.49,10-.59.74-1.13,1.81-.61,4.13,2,8.89,21,9.76,31.88,8.88l.26,0,2.5-.05.32,15-2.49.06-1.82,0Zm92.44-48c-76.47,0-118.75.42-128.38,13.71-2.76,3.81-3,8.91-.62,16,3.71,11.3,23,13.45,38.82,13.21l-.11-4.87a85.85,85.85,0,0,1-14.88-.51c-11.6-1.52-18.24-5.7-19.75-12.41-.75-3.35-.23-6.08,1.59-8.36,6.41-8,28.9-11.82,139.39-11.82,74.57,0,95.17-11.06,104.79-20.71,10.64-10.67,10.6-24.66,10.56-39.47V758h-5v.38c0,14.35.07,26.73-9.1,35.93-13.1,13.13-45.27,19.24-101.25,19.24H351.56Z"/><path class="cls-2" d="M863.6,859.94a12.81,12.81,0,0,0-4.07,4.78c-1.79-.06-3.63-.09-5.51-.09-35.31,0-57.88-7.68-71-24.17C770,824.14,768.36,776,768.24,758h5c.12,20.72,1.82,64.53,13.65,79.35s33.79,22.13,67.11,22.29Q859.07,859.66,863.6,859.94Z"/><path class="cls-5" d="M854,854.63c-31.72-.15-52.4-6.82-63.24-20.41-11.65-14.61-12.56-64-12.56-78.73V753h-15v2.5c0,20.52,1.54,70.17,15.84,88.09s38,26,74.95,26c1.45,0,2.87,0,4.26,0a12.36,12.36,0,0,1,1.25-5c-1.79-.06-3.63-.09-5.51-.09-35.31,0-57.88-7.68-71-24.17C770,824.14,768.36,776,768.24,758h5c.12,20.72,1.82,64.53,13.65,79.35s33.79,22.13,67.11,22.29q5.07,0,9.6.31a12.51,12.51,0,0,1,7.25-2.3h7.34l.17-1A157,157,0,0,0,854,854.63Z"/><path class="cls-8" d="M878.36,856.62a4.94,4.94,0,0,0-.17,1"/><path class="cls-9" d="M698.18,476.87c-1,0-1.62.54-2.52,1.89-2.07,2.7-3.6,4.32-9.27,4.32a19.24,19.24,0,0,0,2.25-8.91c0-8.09-3.6-15-11.33-15a9.86,9.86,0,0,0-9.72,8.73A15.21,15.21,0,0,0,663,479a14.5,14.5,0,0,0,.44,3.63,6.86,6.86,0,0,1-4.22,1.77c-3.24,0-6.93-3.24-8.37-6.48,4.77-7.55,11.6-22,11.6-31.3,0-6.48-3.5-9.09-6.74-9.09-6.21,0-13.22,9.09-13.22,32.48a28.4,28.4,0,0,0,1.33,9c-2,2.63-4.67,5.42-7.63,5.42-3.24,0-6.93-3.24-8.37-6.48,4.77-7.55,11.61-22,11.61-31.3,0-6.48-3.51-9.09-6.75-9.09-6.21,0-13.22,9.09-13.22,32.48a28.81,28.81,0,0,0,1.11,8.21c-.13.15-.25.32-.39.51-2,2.7-5.22,6.75-10.71,6.75-1.35,0-5.57-.27-7-4.32,5-2.34,12.59-9.08,12.59-14.93,0-4.68-2.7-7.38-7.38-7.38-6.92,0-13.94,8.55-13.94,18.53a15.69,15.69,0,0,0,.65,4.56c-1.38,1.41-2.8,2.46-4,2.46-2.25,0-3.51-1.53-3.51-4.14,0-4.5.63-8.54.63-12.5,0-4.77-2.52-7.38-5.67-7.38-6.47,0-12,9.9-14.84,16.46.18-1.89.36-4.13.45-6,4-5.22,12.15-17.27,12.15-26.54,0-6-3.51-8.81-7-8.81-13.94,0-12.68,37.06-12.77,52.44,0,2.88,1.26,4.76,3.69,4.76,2.78,0,4-1,5.21-7S575.93,468,578,468a1.28,1.28,0,0,1,1.26,1.44c0,4.32-.72,7.46-.72,12,0,4.86,3.86,8.82,9.8,8.82,3.53,0,6.26-1.77,8.46-4a14.58,14.58,0,0,0,11.15,4.6c7.31,0,11.88-4.37,14.7-7.87,3,5,7.66,7.24,11.93,7.24,5.46,0,8.93-3.45,11.45-6.69a14,14,0,0,0,11.58,6.69,12.28,12.28,0,0,0,8.18-3.18c2.25,2.44,5.64,3.54,9.36,3.54a11.94,11.94,0,0,0,7.91-3.15,19.07,19.07,0,0,0,4,.45,13.7,13.7,0,0,0,12-6.12,4.71,4.71,0,0,0,1.26-2.88A2.09,2.09,0,0,0,698.18,476.87ZM572.6,441.61c1.26,0,1.44,1,1.44,2.25,0,4.77-3.33,13.31-6.21,19.34C568.64,453.58,570.44,441.61,572.6,441.61Zm34,22.67c.81,0,1.35,1,1.35,2.52,0,4.05-2.43,7-5.75,9.08C602.38,470.31,605.08,464.28,606.6,464.28ZM632,443.41c.63,0,1.17.54,1.17,1.71,0,8.91-3.87,20.24-6.75,27C626.57,462.21,628.64,443.41,632,443.41Zm23,0c.63,0,1.17.54,1.17,1.71,0,8.91-3.87,20.24-6.75,27C649.6,462.21,651.67,443.41,655,443.41Zm14.63,33.47h-.06a2.26,2.26,0,0,0-.53.07c0-.34,0-.69.08-1.06C669.28,476.22,669.46,476.55,669.63,476.88Zm4.71,9.17c-1.93,0-3.54-1.36-4.46-3.54l.5-.69a5.84,5.84,0,0,0,1.13-2,22.1,22.1,0,0,0,5.8,5.19A4.65,4.65,0,0,1,674.34,486.05Zm5.94-5.94a16.08,16.08,0,0,1-5.4-11.6c0-3.15,1.44-5,2.52-5,2.34,0,3.69,4.23,3.69,11A18.35,18.35,0,0,1,680.28,480.11Z"/><path class="cls-2" d="M813.14,907.55v.17l-.57.1v2.77a9.74,9.74,0,0,1-5.66,8.8l-.38.17a8.7,8.7,0,0,1-1.22.4c-.2,0-.39.1-.59.13s-.4.08-.6.1-.41,0-.61.06l-.62,0H281.76a9.73,9.73,0,0,1-2.42-.31,9.91,9.91,0,0,1-7.25-9.1,2.44,2.44,0,0,1,0-.27v-3.08a10.4,10.4,0,0,0,1.77.14H811.6A11.17,11.17,0,0,0,813.14,907.55Z"/><path class="cls-5" d="M812.57,907.82v2.77a9.74,9.74,0,0,1-5.66,8.8l-.38.17a8.7,8.7,0,0,1-1.22.4c-.2,0-.39.1-.59.13s-.4.08-.6.1-.41,0-.61.06l-.62,0H281.76a9.69,9.69,0,0,1-9.68-9.68v-2.77a12,12,0,0,1-3-.86v3.63a12.7,12.7,0,0,0,12.68,12.68H802.89a12.7,12.7,0,0,0,12.68-12.68V907A12,12,0,0,1,812.57,907.82Z"/><path class="cls-3" d="M818.84,849.23v46.68a8.05,8.05,0,0,1-8,8H273.85a8,8,0,0,1-8-8V849.23a8,8,0,0,1,8-8H810.8A8,8,0,0,1,818.84,849.23Z"/><path class="cls-5" d="M810.8,908H273.85a12.05,12.05,0,0,1-12-12V849.23a12,12,0,0,1,12-12H810.8a12.05,12.05,0,0,1,12,12v46.68A12.05,12.05,0,0,1,810.8,908ZM273.85,841.2a8,8,0,0,0-8,8v46.68a8,8,0,0,0,8,8H810.8a8.05,8.05,0,0,0,8-8V849.23a8,8,0,0,0-8-8Z"/><path class="cls-3" d="M337,839.05v12.77H300.28V839.06a2.7,2.7,0,0,1,1-2.08,3,3,0,0,1,2.47-.66,104.6,104.6,0,0,0,14.59.75,116.76,116.76,0,0,0,15.14-.75A3.09,3.09,0,0,1,336,837,2.67,2.67,0,0,1,337,839.05Z"/><path class="cls-5" d="M339,853.82H298.28V839.06a4.7,4.7,0,0,1,1.72-3.62,5,5,0,0,1,4.11-1.09c5.27.95,23.19.95,29,0h0a5.12,5.12,0,0,1,4.14,1.15,4.66,4.66,0,0,1,1.68,3.56Zm-38.69-2H337V839.05a2.67,2.67,0,0,0-1-2,3.09,3.09,0,0,0-2.52-.69h0c-6.14,1-24.19,1-29.73,0a3,3,0,0,0-2.47.66,2.7,2.7,0,0,0-1,2.08Z"/><path class="cls-3" d="M381.72,839.05v12.77H345V839.06a3,3,0,0,1,1.22-2.34,2.44,2.44,0,0,1,2.15-.43c2.68.81,8.58,1.21,14.6,1.21s12.12-.4,15.31-1.2a2.61,2.61,0,0,1,2.28.52A2.85,2.85,0,0,1,381.72,839.05Z"/><path class="cls-5" d="M383.72,853.82H343V839.06a5,5,0,0,1,2-3.94,4.4,4.4,0,0,1,3.92-.74c5,1.51,22.82,1.49,28.85,0h0a4.61,4.61,0,0,1,4,.88,4.89,4.89,0,0,1,1.9,3.81Zm-38.69-2h36.69V839.05a2.87,2.87,0,0,0-1.13-2.23,2.61,2.61,0,0,0-2.28-.52h0c-6.38,1.6-24.56,1.6-29.91,0a2.41,2.41,0,0,0-2.15.44,3,3,0,0,0-1.22,2.33Z"/><path class="cls-3" d="M426.48,839.05v12.77h-36.7V839.06a2.9,2.9,0,0,1,1.17-2.27,2.57,2.57,0,0,1,2.23-.49c2.83.77,9.07,1.2,15.29,1.2,5.81,0,11.61-.38,14.62-1.21a2.54,2.54,0,0,1,2.21.47A2.93,2.93,0,0,1,426.48,839.05Z"/><path class="cls-5" d="M428.48,853.82h-40.7V839.06a4.93,4.93,0,0,1,2-3.86,4.54,4.54,0,0,1,4-.83c5.16,1.39,23,1.62,28.86,0a4.52,4.52,0,0,1,3.95.8,4.94,4.94,0,0,1,2,3.88Zm-38.7-2h36.7V839.05a2.9,2.9,0,0,0-1.18-2.28,2.54,2.54,0,0,0-2.21-.48h0c-6.23,1.73-24.43,1.49-29.91,0a2.57,2.57,0,0,0-2.23.49,2.9,2.9,0,0,0-1.17,2.27Z"/><path class="cls-3" d="M471.23,839.05v12.77h-36.7V839.06a2.79,2.79,0,0,1,1.06-2.15,2.9,2.9,0,0,1,2.4-.6c2.79.58,9.35,1,15.8,1,5.58,0,11.08-.29,14-1a2.76,2.76,0,0,1,2.33.55A2.85,2.85,0,0,1,471.23,839.05Z"/><path class="cls-5" d="M473.23,853.82h-40.7V839.06a4.78,4.78,0,0,1,1.8-3.7,4.86,4.86,0,0,1,4.06-1c4.94,1,23,1.4,29,0h0a4.73,4.73,0,0,1,4,.92,4.91,4.91,0,0,1,1.86,3.77Zm-38.7-2h36.7V839.05a2.85,2.85,0,0,0-1.1-2.2,2.76,2.76,0,0,0-2.33-.55h0c-6.32,1.49-24.6,1.1-29.81,0a2.88,2.88,0,0,0-2.4.61,2.76,2.76,0,0,0-1.06,2.14Z"/><path class="cls-3" d="M516,839.05v12.77H479.29V839.06a3,3,0,0,1,1.27-2.39,2.27,2.27,0,0,1,2.07-.38c5.37,1.75,23.6,2,30,0a2.34,2.34,0,0,1,2.1.4A3,3,0,0,1,516,839.05Z"/><path class="cls-5" d="M518,853.82H477.29V839.06a5.06,5.06,0,0,1,2.09-4,4.25,4.25,0,0,1,3.87-.66c5,1.64,22.77,1.91,28.77,0h0a4.32,4.32,0,0,1,3.89.68,5.06,5.06,0,0,1,2.07,4Zm-38.69-2H516V839.05a3,3,0,0,0-1.25-2.37,2.34,2.34,0,0,0-2.1-.4c-6.4,2.05-24.63,1.76-30,0a2.27,2.27,0,0,0-2.07.38,3.05,3.05,0,0,0-1.27,2.39Z"/><path class="cls-3" d="M560.74,839.05v12.77H524V839.06a3.19,3.19,0,0,1,1.39-2.52,2,2,0,0,1,1.89-.28c2.68,1.07,8.89,1.68,15.18,1.68,5.81,0,11.7-.52,14.92-1.67a2.2,2.2,0,0,1,2,.34A3.1,3.1,0,0,1,560.74,839.05Z"/><path class="cls-5" d="M562.74,853.82H522V839.06a5.19,5.19,0,0,1,2.27-4.17,4,4,0,0,1,3.76-.48c4.65,1.86,22.57,2.15,28.67,0h0a4.15,4.15,0,0,1,3.83.59,5.07,5.07,0,0,1,2.17,4.07Zm-38.7-2h36.7V839.05a3.1,3.1,0,0,0-1.32-2.44,2.2,2.2,0,0,0-2-.34h0c-6.71,2.39-24.95,2.05-30.1,0a2,2,0,0,0-1.89.27,3.19,3.19,0,0,0-1.39,2.52Z"/><path class="cls-3" d="M605.49,839.05v12.77h-36.7V839.06a2.92,2.92,0,0,1,1.14-2.25,2.66,2.66,0,0,1,2.27-.51c3,.76,9.29,1.19,15.52,1.19,5.81,0,11.53-.37,14.39-1.2a2.47,2.47,0,0,1,2.18.45A3,3,0,0,1,605.49,839.05Z"/><path class="cls-5" d="M607.49,853.82h-40.7V839.06a4.91,4.91,0,0,1,1.92-3.83,4.62,4.62,0,0,1,4-.86c5.4,1.38,23.27,1.61,28.86,0h0a4.42,4.42,0,0,1,3.93.77,4.94,4.94,0,0,1,2,3.91Zm-38.7-2h36.7V839.05a3,3,0,0,0-1.2-2.31,2.5,2.5,0,0,0-2.18-.45h0c-5.94,1.72-24.18,1.48-29.91,0a2.62,2.62,0,0,0-2.27.5,2.92,2.92,0,0,0-1.14,2.25Z"/><path class="cls-3" d="M650.24,839.05v12.77H613.55V839.06a2.87,2.87,0,0,1,1.16-2.27,2.51,2.51,0,0,1,2.23-.49c2.83.76,9.08,1.19,15.31,1.19,5.8,0,11.59-.37,14.6-1.2a2.51,2.51,0,0,1,2.21.48A2.9,2.9,0,0,1,650.24,839.05Z"/><path class="cls-5" d="M652.24,853.82H611.55V839.06a4.88,4.88,0,0,1,2-3.86,4.56,4.56,0,0,1,4-.83c5.15,1.39,23,1.62,28.86,0h0a4.49,4.49,0,0,1,4,.81,4.9,4.9,0,0,1,2,3.87Zm-38.69-2h36.69V839.05a2.9,2.9,0,0,0-1.18-2.28,2.51,2.51,0,0,0-2.21-.48h0c-6.25,1.73-24.44,1.48-29.91,0a2.51,2.51,0,0,0-2.23.49,2.89,2.89,0,0,0-1.16,2.27Z"/><path class="cls-3" d="M695,839.05v12.77H658.26V839.06a2.92,2.92,0,0,1,1.17-2.28,2.53,2.53,0,0,1,2.22-.48c2.78.77,9,1.2,15.23,1.2,5.8,0,11.61-.38,14.68-1.21a2.58,2.58,0,0,1,2.23.49A2.9,2.9,0,0,1,695,839.05Z"/><path class="cls-5" d="M697,853.82H656.26V839.06a4.9,4.9,0,0,1,2-3.87,4.52,4.52,0,0,1,4-.82c5.06,1.39,22.87,1.62,28.86,0h0a4.49,4.49,0,0,1,4,.82,4.91,4.91,0,0,1,2,3.86Zm-38.69-2H695V839.05a2.9,2.9,0,0,0-1.16-2.27,2.55,2.55,0,0,0-2.23-.48h0c-6.36,1.72-24.54,1.48-29.91,0a2.53,2.53,0,0,0-2.22.48,2.92,2.92,0,0,0-1.17,2.28Z"/><path class="cls-3" d="M739.68,839.05v12.77H703V839.06a2.92,2.92,0,0,1,1.17-2.28,2.53,2.53,0,0,1,2.22-.48c2.78.77,9,1.2,15.23,1.2,5.8,0,11.61-.38,14.68-1.21a2.55,2.55,0,0,1,2.22.49A2.87,2.87,0,0,1,739.68,839.05Z"/><path class="cls-5" d="M741.68,853.82H701V839.06a4.9,4.9,0,0,1,2-3.87,4.52,4.52,0,0,1,4-.82c5.05,1.39,22.87,1.62,28.86,0a4.52,4.52,0,0,1,4,.82,4.91,4.91,0,0,1,1.95,3.86Zm-38.69-2h36.69V839.05a2.88,2.88,0,0,0-1.17-2.27,2.52,2.52,0,0,0-2.22-.48h0c-6.36,1.72-24.54,1.48-29.91,0a2.53,2.53,0,0,0-2.22.48,2.92,2.92,0,0,0-1.17,2.28Z"/><path class="cls-3" d="M784.38,839.05v12.77h-36.7V839.06a2.65,2.65,0,0,1,1-2,3.16,3.16,0,0,1,2.53-.71,130.77,130.77,0,0,0,15.79.74,94.61,94.61,0,0,0,13.93-.75,3,3,0,0,1,2.47.66A2.71,2.71,0,0,1,784.38,839.05Z"/><path class="cls-5" d="M786.38,853.82h-40.7V839.06a4.66,4.66,0,0,1,1.67-3.55,5.1,5.1,0,0,1,4.15-1.16c5,.79,23.09,1.08,29,0h0a5,5,0,0,1,4.11,1.08,4.73,4.73,0,0,1,1.73,3.62Zm-38.7-2h36.7V839.05a2.71,2.71,0,0,0-1-2.08,3,3,0,0,0-2.47-.66h0c-6.24,1.14-24.48.84-29.72,0a3.16,3.16,0,0,0-2.53.71,2.65,2.65,0,0,0-1,2Z"/><rect class="cls-2" x="296.4" y="853.5" width="493.41" height="3.06"/><path class="cls-3" d="M404.76,853.35v12.77H368.07V853.35a2.88,2.88,0,0,1,1.13-2.23,2.68,2.68,0,0,1,2.28-.52c3.07.76,9.71,1.26,16.14,1.26,5.59,0,11-.37,13.8-1.28a2.3,2.3,0,0,1,2.08.38A3,3,0,0,1,404.76,853.35Z"/><path class="cls-5" d="M406.76,868.12H366.07V853.35a4.88,4.88,0,0,1,1.9-3.8,4.64,4.64,0,0,1,4-.89c5.4,1.35,23.22,1.84,28.83,0a4.24,4.24,0,0,1,3.87.67,5,5,0,0,1,2.09,4Zm-38.69-2h36.69V853.35A3,3,0,0,0,403.5,851a2.3,2.3,0,0,0-2.08-.38h0c-6,1.95-24.2,1.45-29.94,0a2.68,2.68,0,0,0-2.28.52,2.88,2.88,0,0,0-1.13,2.23Z"/><path class="cls-3" d="M449.52,853.35v12.77h-36.7V853.35a2.74,2.74,0,0,1,1.05-2.13,2.9,2.9,0,0,1,2.41-.61,100.76,100.76,0,0,0,16,1c5.57,0,11-.31,13.8-1a2.58,2.58,0,0,1,2.24.5A2.88,2.88,0,0,1,449.52,853.35Z"/><path class="cls-5" d="M451.52,868.12h-40.7V853.35a4.75,4.75,0,0,1,1.79-3.68,4.88,4.88,0,0,1,4.07-1c5.38,1.11,23.23,1.51,28.93,0a4.55,4.55,0,0,1,4,.85,4.89,4.89,0,0,1,1.94,3.84Zm-38.7-2h36.7V853.35a2.88,2.88,0,0,0-1.16-2.26,2.58,2.58,0,0,0-2.24-.5h0c-6,1.59-24.17,1.18-29.84,0a2.9,2.9,0,0,0-2.41.61,2.74,2.74,0,0,0-1.05,2.13Z"/><path class="cls-3" d="M494.27,853.35v12.77h-36.7V853.35a3,3,0,0,1,1.25-2.35,2.35,2.35,0,0,1,2.11-.41c3,.93,9.29,1.45,15.54,1.45,5.83,0,11.59-.46,14.48-1.47a2.19,2.19,0,0,1,2,.35A3.07,3.07,0,0,1,494.27,853.35Z"/><path class="cls-5" d="M496.27,868.12h-40.7V853.35a5,5,0,0,1,2.06-4,4.35,4.35,0,0,1,3.9-.71c5.37,1.68,23.17,2,28.75,0h0a4.2,4.2,0,0,1,3.84.61,5.06,5.06,0,0,1,2.15,4.06Zm-38.7-2h36.7V853.35a3.08,3.08,0,0,0-1.31-2.43,2.19,2.19,0,0,0-2-.35h0c-6,2.1-24.29,1.81-30,0a2.35,2.35,0,0,0-2.11.41,3,3,0,0,0-1.25,2.35Z"/><path class="cls-3" d="M539,853.35v12.77H502.33V853.35a2.88,2.88,0,0,1,1.16-2.26,2.55,2.55,0,0,1,2.24-.49c2.83.75,9.42,1.24,15.89,1.24,5.61,0,11.13-.37,14-1.26a2.41,2.41,0,0,1,2.13.42A3,3,0,0,1,539,853.35Z"/><path class="cls-5" d="M541,868.12H500.33V853.35a4.88,4.88,0,0,1,1.94-3.84,4.55,4.55,0,0,1,4-.84c5,1.32,23,1.8,28.83,0h0a4.4,4.4,0,0,1,3.91.72,5,5,0,0,1,2,4Zm-38.69-2H539V853.35a3,3,0,0,0-1.23-2.35,2.41,2.41,0,0,0-2.13-.42h0c-6.26,1.92-24.64,1.42-29.93,0a2.55,2.55,0,0,0-2.24.49,2.88,2.88,0,0,0-1.16,2.26Z"/><path class="cls-3" d="M583.78,853.35v12.77h-36.7V853.35a2.77,2.77,0,0,1,1.07-2.15,2.86,2.86,0,0,1,2.38-.59c2.82.6,9.38,1,15.82,1,5.59,0,11.1-.3,14-1a2.7,2.7,0,0,1,2.29.52A2.87,2.87,0,0,1,583.78,853.35Z"/><path class="cls-5" d="M585.78,868.12h-40.7V853.35a4.89,4.89,0,0,1,5.87-4.69c5,1.06,23,1.45,28.93,0a4.67,4.67,0,0,1,4,.89,4.9,4.9,0,0,1,1.89,3.8Zm-38.7-2h36.7V853.35a2.88,2.88,0,0,0-1.13-2.23,2.7,2.7,0,0,0-2.29-.52h0c-6.25,1.54-24.56,1.14-29.83,0a2.86,2.86,0,0,0-2.38.59,2.77,2.77,0,0,0-1.07,2.15Z"/><path class="cls-3" d="M628.53,853.35v12.77h-36.7V853.35a3.2,3.2,0,0,1,1.4-2.52,2,2,0,0,1,1.88-.27c2.69,1.09,8.92,1.71,15.22,1.71,5.81,0,11.69-.52,14.89-1.7a2.12,2.12,0,0,1,2,.32A3.11,3.11,0,0,1,628.53,853.35Z"/><path class="cls-5" d="M630.53,868.12h-40.7V853.35a5.19,5.19,0,0,1,2.29-4.18,3.94,3.94,0,0,1,3.75-.46c4.66,1.9,22.58,2.21,28.66,0a4.11,4.11,0,0,1,3.81.56,5.09,5.09,0,0,1,2.19,4.1Zm-38.7-2h36.7V853.35a3.11,3.11,0,0,0-1.34-2.46,2.12,2.12,0,0,0-2-.32h0c-6.68,2.45-24.94,2.1-30.11,0a2,2,0,0,0-1.88.27,3.2,3.2,0,0,0-1.4,2.52Z"/><path class="cls-3" d="M673.28,853.35v12.77H636.59V853.35a3.05,3.05,0,0,1,1.26-2.38,2.3,2.3,0,0,1,2.08-.39c2.94,1,9.26,1.51,15.52,1.51,5.82,0,11.59-.47,14.51-1.52a2.17,2.17,0,0,1,2,.33A3.13,3.13,0,0,1,673.28,853.35Z"/><path class="cls-5" d="M673.11,849.27a4.13,4.13,0,0,0-3.82-.58c-5.66,2-23.44,1.73-28.74,0a4.28,4.28,0,0,0-3.87.67,5,5,0,0,0-2.09,4v14.77h40.69V853.35A5.08,5.08,0,0,0,673.11,849.27Zm.17,16.85H636.59V853.35a3.05,3.05,0,0,1,1.26-2.38,2.3,2.3,0,0,1,2.08-.39c2.94,1,9.26,1.51,15.52,1.51,5.82,0,11.59-.47,14.51-1.52a2.17,2.17,0,0,1,2,.33,3.13,3.13,0,0,1,1.32,2.45Z"/><path class="cls-3" d="M718,853.35v12.77H681.34V853.35a3,3,0,0,1,1.22-2.33,2.43,2.43,0,0,1,2.15-.43c2.48.75,8.95,1.24,15.48,1.24,5.62,0,11.28-.36,14.46-1.24a2.5,2.5,0,0,1,2.2.47A2.94,2.94,0,0,1,718,853.35Z"/><path class="cls-5" d="M720,868.12H679.34V853.35a5,5,0,0,1,2-3.94,4.4,4.4,0,0,1,3.91-.73c4.33,1.3,22.36,1.78,28.83,0a4.52,4.52,0,0,1,4,.81,4.93,4.93,0,0,1,2,3.88Zm-38.69-2H718V853.35a2.94,2.94,0,0,0-1.18-2.29,2.5,2.5,0,0,0-2.2-.47h0c-6.87,1.9-25.33,1.4-29.94,0a2.43,2.43,0,0,0-2.15.43,3,3,0,0,0-1.22,2.33Z"/><path class="cls-3" d="M359.71,853.43V866.2H306V853.43a2.7,2.7,0,0,1,.95-2.07,2.9,2.9,0,0,1,2.3-.66,162.71,162.71,0,0,0,23.81,1.77,153,153,0,0,0,23.4-1.78,2.84,2.84,0,0,1,2.28.65A2.7,2.7,0,0,1,359.71,853.43Z"/><path class="cls-5" d="M361.71,868.2H304V853.43a4.71,4.71,0,0,1,1.64-3.58,4.84,4.84,0,0,1,3.9-1.13,156.26,156.26,0,0,0,46.61,0h0a4.81,4.81,0,0,1,3.89,1.1,4.73,4.73,0,0,1,1.66,3.61Zm-55.7-2h53.7V853.43a2.7,2.7,0,0,0-1-2.09,2.84,2.84,0,0,0-2.28-.65h0a157.94,157.94,0,0,1-47.21,0,2.9,2.9,0,0,0-2.3.66,2.7,2.7,0,0,0-.95,2.07Z"/><path class="cls-3" d="M779.34,853.43V866.2h-53.7V853.43a2.55,2.55,0,0,1,.83-1.92,3.3,3.3,0,0,1,2.49-.8c7.5.59,15.2.88,23,.88s15.9-.29,24-.89a3.32,3.32,0,0,1,2.5.82A2.56,2.56,0,0,1,779.34,853.43Z"/><path class="cls-5" d="M781.34,868.2h-57.7V853.43a4.59,4.59,0,0,1,1.48-3.39,5.26,5.26,0,0,1,4-1.32,310.38,310.38,0,0,0,46.75,0h0a5.3,5.3,0,0,1,4,1.34,4.58,4.58,0,0,1,1.46,3.38Zm-55.7-2h53.7V853.43a2.56,2.56,0,0,0-.82-1.91,3.32,3.32,0,0,0-2.5-.82h0a310.55,310.55,0,0,1-47.06,0,3.3,3.3,0,0,0-2.49.8,2.55,2.55,0,0,0-.83,1.92Z"/><rect class="cls-2" x="302.9" y="865.22" width="480.4" height="3.45"/><path class="cls-3" d="M755.16,866.94v12.77H711.09V867a3.06,3.06,0,0,1,1-2.36,1.71,1.71,0,0,1,1.43-.38,98.14,98.14,0,0,0,19.52,2,100,100,0,0,0,19.67-2,1.68,1.68,0,0,1,1.43.39A3,3,0,0,1,755.16,866.94Z"/><path class="cls-5" d="M757.16,881.71H709.09V867a5.06,5.06,0,0,1,1.74-3.91,3.7,3.7,0,0,1,3.1-.79,96.77,96.77,0,0,0,38.4,0l.19,1-.19-1a3.66,3.66,0,0,1,3.09.8,5,5,0,0,1,1.74,3.9Zm-46.07-2h44.07V866.94a3,3,0,0,0-1-2.35,1.68,1.68,0,0,0-1.43-.39h0a98.68,98.68,0,0,1-39.19,0,1.71,1.71,0,0,0-1.43.38,3.06,3.06,0,0,0-1,2.36Z"/><path class="cls-3" d="M374.65,866.94v12.77H330.58V867a3.06,3.06,0,0,1,1-2.36,1.67,1.67,0,0,1,1.43-.38,98.68,98.68,0,0,0,39.19,0,1.68,1.68,0,0,1,1.43.39A3,3,0,0,1,374.65,866.94Z"/><path class="cls-5" d="M376.65,881.71H328.58V867a5.06,5.06,0,0,1,1.74-3.91,3.69,3.69,0,0,1,3.09-.79,96.77,96.77,0,0,0,38.4,0l.2,1-.2-1a3.67,3.67,0,0,1,3.1.8,5,5,0,0,1,1.74,3.9Zm-46.07-2h44.07V866.94a3,3,0,0,0-1-2.35,1.68,1.68,0,0,0-1.43-.39h0a98.5,98.5,0,0,1-39.19,0,1.67,1.67,0,0,0-1.43.38,3.06,3.06,0,0,0-1,2.36Z"/><path class="cls-3" d="M442.38,866.94v12.77H381.79V867a2.58,2.58,0,0,1,.94-2,3.59,3.59,0,0,1,2.85-.78,180.42,180.42,0,0,0,53,0,3.55,3.55,0,0,1,2.85.78A2.57,2.57,0,0,1,442.38,866.94Z"/><path class="cls-5" d="M444.38,881.71H379.79V867a4.55,4.55,0,0,1,1.63-3.47,5.55,5.55,0,0,1,4.46-1.24,178.41,178.41,0,0,0,52.41,0h0a5.54,5.54,0,0,1,4.46,1.25,4.52,4.52,0,0,1,1.63,3.46Zm-62.59-2h60.59V866.94a2.59,2.59,0,0,0-.94-2,3.55,3.55,0,0,0-2.85-.78,180.76,180.76,0,0,1-53,0,3.55,3.55,0,0,0-2.85.77,2.58,2.58,0,0,0-.94,2Z"/><path class="cls-3" d="M701.27,866.94v12.77H640.68V867a2.58,2.58,0,0,1,.94-2,3.58,3.58,0,0,1,2.85-.78,178.86,178.86,0,0,0,26.46,2,180.77,180.77,0,0,0,26.55-2,3.55,3.55,0,0,1,2.85.78A2.54,2.54,0,0,1,701.27,866.94Z"/><path class="cls-5" d="M703.27,881.71H638.68V867a4.55,4.55,0,0,1,1.63-3.47,5.55,5.55,0,0,1,4.46-1.24,178.41,178.41,0,0,0,52.41,0h0a5.56,5.56,0,0,1,4.46,1.25,4.52,4.52,0,0,1,1.63,3.46Zm-62.59-2h60.59V866.94a2.56,2.56,0,0,0-.94-2,3.55,3.55,0,0,0-2.85-.78h0a180.76,180.76,0,0,1-53,0,3.54,3.54,0,0,0-2.85.77,2.58,2.58,0,0,0-.94,2Z"/><path class="cls-3" d="M630.86,866.94v12.77H450.07V867a2.58,2.58,0,0,1,.94-2,3.59,3.59,0,0,1,2.85-.78c17.75,2.65,155.34,2.64,173.2,0a3.56,3.56,0,0,1,2.86.78A2.57,2.57,0,0,1,630.86,866.94Z"/><path class="cls-5" d="M632.86,881.71H448.07V867a4.55,4.55,0,0,1,1.63-3.47,5.53,5.53,0,0,1,4.45-1.24c17.69,2.63,154.82,2.62,172.62,0h0a5.52,5.52,0,0,1,4.45,1.25,4.49,4.49,0,0,1,1.64,3.46Zm-182.79-2H630.86V866.94a2.59,2.59,0,0,0-.94-2,3.56,3.56,0,0,0-2.86-.78c-17.86,2.64-155.45,2.65-173.2,0A3.55,3.55,0,0,0,451,865a2.58,2.58,0,0,0-.94,2Z"/><rect class="cls-2" x="326.67" y="878.48" width="432.87" height="3.56"/><path class="cls-2" d="M964.71,857.64H878.19a7.1,7.1,0,0,1,7.08-6.46h72.35a7.12,7.12,0,0,1,7.09,6.46Z"/><path class="cls-3" d="M979.55,870.24v39.87a5,5,0,0,1-4.95,4.95H867.21a5,5,0,0,1-5-4.95V870.24a8.61,8.61,0,0,1,8.59-8.6H971A8.61,8.61,0,0,1,979.55,870.24Z"/><path class="cls-5" d="M974.6,919.06H867.21a9,9,0,0,1-9-8.95V870.24a12.61,12.61,0,0,1,12.59-12.6H971a12.61,12.61,0,0,1,12.6,12.6v39.87A9,9,0,0,1,974.6,919.06ZM870.85,861.64a8.61,8.61,0,0,0-8.59,8.6v39.87a5,5,0,0,0,5,4.95H974.6a5,5,0,0,0,4.95-4.95V870.24a8.61,8.61,0,0,0-8.6-8.6Z"/></svg>