<svg xmlns="http://www.w3.org/2000/svg" xmlns:xlink="http://www.w3.org/1999/xlink" viewBox="0 0 1200 1200"><defs><style>.cls-1{isolation:isolate;}.cls-2{fill:#eee;}.cls-3{fill:#454545;}.cls-4{fill:#acacac;}.cls-5{fill:#aaa;}.cls-6{fill:#626262;}.cls-7{fill:url(#linear-gradient);}.cls-8{mix-blend-mode:multiply;fill:url(#linear-gradient-2);}.cls-9{fill:#e3e3e3;}.cls-10{fill:#e8e8e8;}.cls-11{fill:#2e2e2e;}.cls-12{fill:#181818;}.cls-13{fill:#9e9e9e;}.cls-14{fill:#252525;}.cls-15{fill:#262626;}.cls-16{fill:#d0d0d0;}.cls-17{fill:#151515;}</style><linearGradient id="linear-gradient" x1="910.22" y1="541.87" x2="910.22" y2="511.6" gradientTransform="matrix(1, 0.1, -0.1, 1, -418.8, 12.65)" gradientUnits="userSpaceOnUse"><stop offset="0" stop-color="#c1c1c1"/><stop offset="1" stop-color="#e5e5e5"/></linearGradient><linearGradient id="linear-gradient-2" x1="910.22" y1="541.87" x2="910.22" y2="511.6" gradientTransform="matrix(1, 0.1, -0.1, 1, -418.8, 12.65)" gradientUnits="userSpaceOnUse"><stop offset="0" stop-color="#a4a4a4"/><stop offset="1" stop-color="#c6c6c6"/></linearGradient></defs><g class="cls-1"><g id="Layer_1" data-name="Layer 1"><path class="cls-2" d="M124.33,789c-22.79-57.61-9-132.7,43.4-165.7,22-13.84,49.93-20.54,64.82-41.83,33.06-52.56-14.49-146.92-22.65-216C177.93,94.82,572.13,190.93,655,281.22c70.62,41.21,162.48-2.68,241.38,18.75,70.15,19.06,119.47,95.55,107.88,167.31-9.45,58.49-53.51,112.47-41.85,170.56,30.9,106,199.69,160.39,60,285.73-73,51.59-168,33.78-252.07,38.61-60.37,3.66-119.26,19.27-178.35,32.11-120.09,32-253.31,27.64-339.43-71.71C204.83,878.38,150,854,124.33,789Z"/><rect class="cls-3" x="270.05" y="473.12" width="57.29" height="57.29" rx="17.08" transform="translate(597.38 1003.53) rotate(180)"/><path class="cls-4" d="M283.57,568.3c10.08.1,20.16.46,30.24.82-1.24-15.74-2.23-31.49-3.43-47.22l-23.73.24Q285.34,545.24,283.57,568.3Z"/><path class="cls-4" d="M319,537.35h-5.22c-11.78,0-32.67-9.54-32.67-21.32V505a21.32,21.32,0,0,1,21.32-21.33h5.22A21.33,21.33,0,0,1,329,505V516C329,527.81,330.81,537.35,319,537.35Z"/><rect class="cls-3" x="296" y="479.84" width="41.15" height="22.31" rx="9.47" transform="translate(507.47 1043.13) rotate(-166.26)"/><rect class="cls-3" x="274.07" y="480.69" width="28.06" height="22.31" rx="9.47" transform="translate(707.66 877.69) rotate(162.96)"/><path class="cls-4" d="M288.22,512.83A9.21,9.21,0,0,1,278,522.37a11.17,11.17,0,0,1-10.48-11,9.22,9.22,0,0,1,10.24-9.54A11.12,11.12,0,0,1,288.22,512.83Z"/><path class="cls-5" d="M422.76,620.79l1.65,8.22,1.66,8.21L344.89,641l-20.44-25.8c-6.47-8.58-11.07-16.08-5.35-24h0a16.47,16.47,0,0,1,24.39-2.45l17,30.7Z"/><path class="cls-5" d="M446.75,621.42h0a8.47,8.47,0,0,1-5.1,10.45l-11.54,4.33a8.46,8.46,0,0,1-11-5.38l-.41-1.29a8.46,8.46,0,0,1,6-10.72l12-3A8.45,8.45,0,0,1,446.75,621.42Z"/><path class="cls-6" d="M415.77,628.4c5.39-4.21,23.81-16.44,28.12-19.47a2.54,2.54,0,0,1,2.68-.16l9.75,5.27a2.58,2.58,0,0,1,.36,4.32L426.44,640.5a2.57,2.57,0,0,1-3.42-.25l-7.51-8A2.56,2.56,0,0,1,415.77,628.4Z"/><path class="cls-7" d="M416.43,629.53c4-3.25,24.92-17.59,28.22-19.85a.84.84,0,0,1,.9,0l9.76,6a.83.83,0,0,1,.06,1.37l-29.91,22.15a.85.85,0,0,1-1.09-.09l-8-8.3A.83.83,0,0,1,416.43,629.53Z"/><path class="cls-5" d="M436,617.87a5.92,5.92,0,0,1,2.22-.85,6.24,6.24,0,0,1,2.65.08,4.77,4.77,0,0,1,2.3,1.3,3.6,3.6,0,0,1,1.07,2,3.11,3.11,0,0,1-.33,2,4.53,4.53,0,0,1-1.55,1.66,4.69,4.69,0,0,1-1.64.74,6.89,6.89,0,0,1-1.57.2c-.49,0-1.35,0-2.56-.06h-.86a4.26,4.26,0,0,0-.6.09,3.68,3.68,0,0,0-.47.15l-.76.34c-.74.37-1.32.34-1.73-.08a.77.77,0,0,1-.22-.77,1.72,1.72,0,0,1,.75-.87,5.93,5.93,0,0,1,1.56-.77,5.55,5.55,0,0,1,1.46-.26c.48,0,1.07,0,1.78,0s1.09,0,1.39,0a4.59,4.59,0,0,0,.9-.1,2.59,2.59,0,0,0,.85-.37,2.05,2.05,0,0,0,.93-1.24,1.36,1.36,0,0,0-.42-1.32,2,2,0,0,0-1.54-.66,7.14,7.14,0,0,0-2.11.5c-.86.34-1.49.31-1.88-.09a.81.81,0,0,1-.21-.84A1.43,1.43,0,0,1,436,617.87Zm-7.2,9.91a1,1,0,0,1-.31-.9,1.37,1.37,0,0,1,.69-.94,2,2,0,0,1,1.21-.35,1.48,1.48,0,0,1,1,.43.94.94,0,0,1,.28.92,1.44,1.44,0,0,1-.67.89,1.94,1.94,0,0,1-1.25.37A1.46,1.46,0,0,1,428.78,627.78Z"/><path class="cls-8" d="M416.43,629.53c4-3.25,24.92-17.59,28.22-19.85a.84.84,0,0,1,.9,0l9.76,6a.83.83,0,0,1,.06,1.37l-29.91,22.15a.85.85,0,0,1-1.09-.09l-8-8.3A.83.83,0,0,1,416.43,629.53Z"/><path class="cls-5" d="M432.54,619h0a2.18,2.18,0,0,1-1.89,2.31l-3.14.4c-1.23.16-6.76,1.17-6.85-.07l0-.35c-.09-1.24,5.3-4.22,6.54-4.24l3.17-.06A2.17,2.17,0,0,1,432.54,619Z"/><path class="cls-9" d="M341.36,563.46l15.44,37.72-35.05,14c-1.88.75-4.15-.45-5.07-2.69l-12.44-33.72c-2.08-8.5-.83-16.24,6.79-19.27l10.88-4.34A15.07,15.07,0,0,1,341.36,563.46Z"/><path class="cls-10" d="M251.52,553.73h87.75a0,0,0,0,1,0,0v99a8.36,8.36,0,0,1-8.36,8.36h-71a8.36,8.36,0,0,1-8.36-8.36v-99a0,0,0,0,1,0,0Z" transform="translate(590.79 1214.84) rotate(180)"/><path class="cls-4" d="M238.68,698l-7.75-.24-7.75-.23,2.31-81.94,11.28-23.13a15.28,15.28,0,0,1,21.9-6.21h0a15.27,15.27,0,0,1,3.79,22.4l-16,20.2Z"/><path class="cls-4" d="M230.23,721h0a8.19,8.19,0,0,1-7.94-8l-.3-12a8.2,8.2,0,0,1,8.44-8.39l1.31,0a8.19,8.19,0,0,1,7.91,8.88l-1,11.91A8.19,8.19,0,0,1,230.23,721Z"/><path class="cls-10" d="M282.19,579.09,264.9,612.55l-31.16-16.09c-1.67-.87-2.2-3.17-1.17-5.15L248,561.43a13.81,13.81,0,0,1,18.59-5.93l9.67,5A13.8,13.8,0,0,1,282.19,579.09Z"/><path class="cls-5" d="M333.08,915.64l-4,36.15-15.75-.61,2.64-34a2,2,0,0,1,1.74-1.84l13.2-1.82A1.89,1.89,0,0,1,333.08,915.64Z"/><path class="cls-11" d="M313.72,946.13l-1,14.6,54.15,2.1c.89-12.88-37.13-16.08-37.13-16.08Z"/><path class="cls-12" d="M342.85,931.32,325,930.81l-17.82-.52,10.39-130L285.21,661.37,337,659.83c1.95,0,3.61.7,3.95,2.62l18.12,128.09Z"/><path class="cls-13" d="M213.41,900.6l8.25,4.08a2.82,2.82,0,0,1,1.26,3.88l-9.83,19.76-14-4.68,9.66-21.31A3.56,3.56,0,0,1,213.41,900.6Z"/><path class="cls-14" d="M201,919.29l-5.58,12.56,48.1,16c5-11-28.22-23.78-28.22-23.78Z"/><path class="cls-15" d="M231.67,915.94l-15.56-6.09-15.6-6.12L260,801.39l-8.77-135.07c0-1.2.93-3.93,2.14-4l53.26-1.59-5.78,140.52Z"/><path class="cls-4" d="M811,657.26l3.69,7.08,3.71,7.1,75-39L914,601.65a2.92,2.92,0,0,1-.68-.35L888.83,585l-17.06,34Z"/><path class="cls-16" d="M917.49,602.48l16.39-24.62a11,11,0,0,0-3.35-15.42l-15.47-9.61a11,11,0,0,0-15.62,4.4L885.2,585.59l27,17.95A3.79,3.79,0,0,0,917.49,602.48Z"/><path class="cls-4" d="M793.54,675.4h0a8.45,8.45,0,0,0,11,3.79l11.23-5.1a8.44,8.44,0,0,0,4-11.6l-.62-1.2a8.46,8.46,0,0,0-11.8-3.36l-10.61,6.3A8.44,8.44,0,0,0,793.54,675.4Z"/><rect class="cls-3" x="961.8" y="474.67" width="28" height="20.6" rx="8.74" transform="translate(-101.49 648.77) rotate(-35.07)"/><path class="cls-3" d="M940.75,473.19h16.51a26.5,26.5,0,0,1,26.5,26.5v53.49a3.14,3.14,0,0,1-3.14,3.14H917.39a3.14,3.14,0,0,1-3.14-3.14V499.69a26.5,26.5,0,0,1,26.5-26.5Z" transform="translate(16.26 -28.9) rotate(1.76)"/><path class="cls-4" d="M964.06,574.87c-10.4-.21-20.8-.16-31.2-.11,1.77-16.19,3.29-32.39,5-48.58q12.23.52,24.46,1C962.75,543.08,963.35,559,964.06,574.87Z"/><path class="cls-4" d="M928.48,541.84l5.38.17c12.15.37,34-8.81,34.36-21l.36-11.41A22,22,0,0,0,947.26,487l-5.38-.17a22,22,0,0,0-22.67,21.31l-.35,11.42C918.49,531.68,916.34,541.47,928.48,541.84Z"/><path class="cls-4" d="M961,517.53a9.5,9.5,0,0,0,10.25,10.16,11.52,11.52,0,0,0,11.15-11,9.51,9.51,0,0,0-10.25-10.16A11.47,11.47,0,0,0,961,517.53Z"/><rect class="cls-3" x="912.5" y="484.01" width="28" height="20.6" rx="8.74" transform="translate(-119.23 590.2) rotate(-33.32)"/><rect class="cls-3" x="935.57" y="484.72" width="28" height="20.6" rx="8.74" transform="translate(459.21 -456.97) rotate(35.21)"/><rect class="cls-3" x="952.19" y="497.47" width="24.93" height="12.76" rx="5.42" transform="translate(1523.91 -429.77) rotate(93.34)"/><path class="cls-16" d="M986.54,662.08H896L907.3,617.8l-1.79-66.31,39.17,1.11,32.84.93a6.56,6.56,0,0,1,6.37,6.52l.34,61.58Z"/><path class="cls-4" d="M907.57,925.43,911,952.31l8-.37,8-.37L924,920.1C918.54,922,913,923.57,907.57,925.43Z"/><path class="cls-4" d="M873.61,963.82l54.11-2.53-.78-9.72-16,.74S873.1,957.4,873.61,963.82Z"/><path class="cls-17" d="M926.52,946.41l1.19,14.88-54.88,2.56c-1.05-13.12,37.47-16.68,37.47-16.68Z"/><path class="cls-12" d="M902.33,931.28l12.55-.4,12.56-.41-1.17-135.78,24.41-137.62H898.12a4.25,4.25,0,0,0-4.06,3.58L883.27,791.06Z"/><path class="cls-4" d="M980.11,918.33c-1.24.34-2.48.71-3.71,1.09l8,32.89,7.93-.37,7.93-.37-7.62-36.22C988.47,916.28,984.26,917.2,980.11,918.33Z"/><path class="cls-4" d="M948.4,963.82l53.81-2.53-1.92-9.72-15.86.74S947.13,957.4,948.4,963.82Z"/><path class="cls-17" d="M999.27,946.41l2.93,14.88-54.58,2.56c-2.58-13.12,35.52-16.68,35.52-16.68Z"/><path class="cls-15" d="M973.31,931.28l12.51-.41,12.51-.4-17-135.78,8-132.61a4.74,4.74,0,0,0-4.72-5H937.06a3.68,3.68,0,0,0-3.65,3.58l4.45,130.41Z"/><path class="cls-4" d="M852.17,577l66.17,35.68,34.9-12.39a4.42,4.42,0,0,1-.34-.69l-9.54-26.81-27.3,14.43-57-24.68-3.42,7.22Z"/><path class="cls-16" d="M957.75,601.85l27.8-9.88a11.07,11.07,0,0,0,6.6-14.45l-6.57-16.81a11.06,11.06,0,0,0-15.25-5.87L942,569l10.9,30.58A3.79,3.79,0,0,0,957.75,601.85Z"/><path class="cls-4" d="M834,559.49h0a8.44,8.44,0,0,0,3.61,11l10.84,5.88a8.45,8.45,0,0,0,11.66-3.81l.58-1.22a8.45,8.45,0,0,0-4.45-11.44l-11.42-4.66A8.45,8.45,0,0,0,834,559.49Z"/><path class="cls-3" d="M429.56,435.23q0-35.24,20.79-71.39T511,303.94q39.88-23.73,93.06-23.73,49.42,0,87.27,19.84t58.46,54a140.77,140.77,0,0,1,20.62,74.17q0,31.53-11.76,55.26a169.15,169.15,0,0,1-27.95,41q-16.2,17.25-58.12,58A247.23,247.23,0,0,0,654,602.67a75.78,75.78,0,0,0-15.68,30.41c-1.25,4.82-3.13,69.19-5.62,81.3Q626.25,753,592.16,753a39.7,39.7,0,0,1-29.83-12.61q-12.11-12.6-12.1-37.46c0-20.76,2.95-94.65,8.86-109.85a138.88,138.88,0,0,1,23.52-40q14.65-17.25,39.55-41,21.81-20.78,31.53-31.34a106,106,0,0,0,16.36-23.55,61,61,0,0,0,6.65-28.19q0-29.66-20.28-50.06t-52.33-20.4q-37.5,0-55.22,20.58t-30,60.64q-11.6,41.91-44,41.9-19.08,0-32.21-14.64T429.56,435.23ZM595.91,913.54a53.61,53.61,0,0,1-36.3-13.47q-15.52-13.46-15.52-37.67,0-21.46,15-36.13t36.82-14.66q21.48,0,36.13,14.66T646.7,862.4q0,23.86-15.34,37.5A51.75,51.75,0,0,1,595.91,913.54Z"/></g></g></svg>